<svg width="25.000000" height="21.000000" viewBox="0 0 25 21" fill="none" xmlns="http://www.w3.org/2000/svg" xmlns:xlink="http://www.w3.org/1999/xlink">
	<desc>
			Created with Pixso.
	</desc>
	<defs/>
	<path d="M15.36 19.58L23.58 11.43C24.33 10.68 24.33 9.46 23.58 8.71L15.36 0.56C14.61 -0.19 13.38 -0.19 12.62 0.56C11.87 1.31 11.87 2.52 12.62 3.28L17.42 8.04L2.01 8.04C0.9 8.04 0 8.94 0 10.06C0 11.17 0.9 12.07 2.01 12.07L17.45 12.07L12.62 16.86C11.87 17.61 11.87 18.83 12.62 19.58C13.38 20.33 14.6 20.33 15.36 19.58L15.36 19.58Z" fill="#FFFFFF" fill-opacity="1.000000" fill-rule="nonzero"/>
</svg>
