<svg width="21.000000" height="24.000000" viewBox="0 0 21 24" fill="none" xmlns="http://www.w3.org/2000/svg" xmlns:xlink="http://www.w3.org/1999/xlink">
	<desc>
			Created with Pixso.
	</desc>
	<defs/>
	<path d="M10.3 23.88C10.7 23.84 11.08 23.68 11.38 23.42L19.52 16.45C19.93 16.12 20.19 15.64 20.24 15.11C20.29 14.59 20.12 14.07 19.78 13.67C19.44 13.27 18.95 13.03 18.43 13C17.9 12.97 17.39 13.15 17 13.5L10.12 19.4L3.24 13.5C2.85 13.15 2.34 12.97 1.81 13C1.29 13.03 0.8 13.27 0.46 13.67C0.12 14.07 -0.05 14.59 0 15.11C0.05 15.64 0.31 16.12 0.72 16.45L8.86 23.42C9.26 23.76 9.78 23.93 10.3 23.88Z" fill="#FFFFFF" fill-opacity="1.000000" fill-rule="nonzero"/>
	<path d="M10.3 10.88C10.7 10.84 11.08 10.68 11.38 10.42L19.52 3.45C19.93 3.12 20.19 2.64 20.24 2.11C20.29 1.59 20.12 1.07 19.78 0.67C19.44 0.27 18.95 0.03 18.43 0C17.9 -0.03 17.39 0.15 17 0.5L10.12 6.4L3.24 0.5C2.85 0.15 2.34 -0.03 1.81 0C1.29 0.03 0.8 0.27 0.46 0.67C0.12 1.07 -0.05 1.59 0 2.11C0.05 2.64 0.31 3.12 0.72 3.45L8.86 10.42C9.26 10.76 9.78 10.93 10.3 10.88Z" fill="#FFFFFF" fill-opacity="1.000000" fill-rule="nonzero"/>
</svg>
