<svg width="25.000000" height="21.000000" viewBox="0 0 25 21" fill="none" xmlns="http://www.w3.org/2000/svg" xmlns:xlink="http://www.w3.org/1999/xlink">
	<desc>
			Created with Pixso.
	</desc>
	<defs/>
	<path d="M8.77 0.56L0.56 8.71C-0.19 9.46 -0.19 10.68 0.56 11.43L8.77 19.58C9.53 20.33 10.76 20.33 11.52 19.58C12.27 18.83 12.27 17.62 11.52 16.86L6.71 12.1L22.13 12.1C23.24 12.1 24.14 11.2 24.14 10.08C24.14 8.97 23.24 8.07 22.13 8.07L6.68 8.07L11.52 3.28C12.27 2.53 12.27 1.31 11.52 0.56C10.76 -0.19 9.53 -0.19 8.77 0.56L8.77 0.56Z" fill="#FFFFFF" fill-opacity="1.000000" fill-rule="nonzero"/>
</svg>
