<svg width="168.000000" height="315.000000" viewBox="0 0 168 315" fill="none" xmlns="http://www.w3.org/2000/svg" xmlns:xlink="http://www.w3.org/1999/xlink">
	<desc>
			Created with Pixso.
	</desc>
	<defs/>
	<path id="Rectangle 4" d="M0 -0.32L168 -0.32L168 206.69L0 206.69L0 -0.32Z" fill="#4AF6CD" fill-opacity="1.000000" fill-rule="evenodd"/>
	<path id="surf" d="M68.6 161.18Q67.22 164.8 67.22 169.55Q67.22 173.99 68.75 177.56Q70.05 180.62 72.32 182.54Q72.69 182.86 73.1 183.14Q73.95 183.75 74.89 184.18Q77.04 185.15 79.63 185.15Q82.99 185.15 85.54 183.71Q86.59 183.11 87.5 182.28Q90.62 179.39 92.84 172.3Q93.74 169.36 94.48 167.83Q95.23 166.31 96.17 165.71Q97.09 165.11 98.54 165.11Q99.62 165.11 100.47 165.55Q101.23 165.94 101.81 166.68Q103.04 168.23 103.04 171.04Q103.04 171.78 102.96 172.5Q102.48 177.13 98.95 181.43L105.02 186.89Q106.69 185.14 107.91 183.12Q111.08 177.82 111.08 170.63Q111.08 165.4 109.39 161.53Q107.81 157.89 105.03 155.87Q104.87 155.75 104.69 155.63Q103.88 155.08 103 154.68Q100.6 153.58 97.69 153.58Q92.83 153.58 89.84 155.95Q89.48 156.23 89.15 156.56Q86.06 159.53 84.01 165.94Q82.94 169.3 82.22 170.87Q81.49 172.42 80.71 173.08Q80.58 173.19 80.44 173.28Q79.73 173.74 78.74 173.74Q77.77 173.74 77.06 173.32Q76.52 173 76.13 172.45Q75.19 171.16 75.19 168.7Q75.19 167.93 75.28 167.17Q75.75 163.26 78.62 159.64L72.73 154.67Q70.89 156.59 69.67 158.85Q69.06 159.97 68.6 161.18ZM103.01 117.65Q99.88 116.14 96.02 116.14L68.29 116.14L68.29 127.31L95.65 127.31Q99.37 127.31 101.18 128.63Q101.48 128.85 101.73 129.12Q102.98 130.45 102.98 132.95Q102.98 135.48 101.71 136.84Q101.48 137.09 101.21 137.3Q99.43 138.64 95.65 138.64L68.29 138.64L68.29 149.75L96.02 149.75Q101.3 149.75 104.91 147.29Q106.06 146.51 107.04 145.49Q111.08 141.22 111.08 132.95Q111.08 127.48 109.13 123.7Q107.65 120.84 105.33 119.06Q104.58 118.49 103.76 118.03Q103.39 117.83 103.01 117.65ZM94.63 99.22L94.63 96.16L110 88L110 75.64L92.59 86.03Q90.5 82.01 87.86 80.18Q85.21 78.35 81.25 78.35Q76.38 78.35 73.37 80.72Q72.3 81.56 71.47 82.7Q68.29 87.05 68.29 95.87L68.29 110.33L110 110.33L110 99.22L94.63 99.22ZM68.29 73.13L110 73.13L110 62.02L94.03 62.02L94.03 50.26L86.18 50.26L86.18 62.02L76.16 62.02L76.16 48.65L68.29 47.51L68.29 73.13ZM87.07 95.5L87.07 99.22L76.04 99.22L76.04 96.1Q76.04 92.92 77.3 91.34Q77.5 91.09 77.74 90.87Q78.99 89.75 81.25 89.75Q84.19 89.75 85.65 91.21Q87.07 92.65 87.07 95.5Z" fill="#FFFFFF" fill-opacity="1.000000" fill-rule="evenodd"/>
	<path id="Go" d="M69.06 282.89Q67.22 286.99 67.22 291.92Q67.22 297.16 69.27 301.41Q69.52 301.92 69.8 302.42Q70.58 303.83 71.59 305.05Q73.89 307.85 77.33 309.7Q82.28 312.37 89.12 312.37Q101.37 312.37 106.78 306.29Q111.08 301.46 111.08 292.81Q111.08 288.86 109.88 284.79Q108.68 280.7 106.51 277.46L85.75 277.46L85.75 294.01L93.37 292.93L93.37 288.2L101.95 288.2Q102.1 288.49 102.23 288.79Q103.1 290.77 103.1 293.12Q103.1 295.76 101.83 297.46Q101.81 297.5 101.78 297.53Q100.46 299.23 97.43 300.08Q94.39 300.91 89.18 300.91Q82.03 300.91 78.56 298.37Q76.99 297.22 76.13 295.67Q75.07 293.79 75.07 291.32Q75.07 288.98 75.83 287.14Q76.58 285.31 78.19 283.03L72.5 277.58Q70.33 280.04 69.06 282.89ZM70.37 243.15Q67.22 247.65 67.22 254.36Q67.22 260.35 69.86 264.64Q70.62 265.88 71.58 266.96Q73.92 269.59 77.42 271.19Q82.34 273.43 89.12 273.43Q99.55 273.43 105.32 268.42Q106.82 267.12 107.93 265.54Q111.08 261.05 111.08 254.36Q111.08 248.35 108.44 244.03Q107.65 242.73 106.64 241.62Q104.3 239.03 100.84 237.47Q95.89 235.21 89.12 235.21Q78.74 235.21 72.98 240.25Q71.48 241.56 70.37 243.15ZM76.15 257.98Q75.19 256.47 75.19 254.36Q75.19 252.14 76.21 250.6Q77.01 249.39 78.44 248.6Q81.68 246.8 89.12 246.8Q96.62 246.8 99.86 248.6Q101.27 249.39 102.07 250.58Q103.1 252.13 103.1 254.36Q103.1 256.35 102.21 257.82Q101.4 259.16 99.83 260.06Q96.55 261.92 89.12 261.92Q81.68 261.92 78.44 260.08Q76.95 259.25 76.15 257.98Z" fill="#FFFFFF" fill-opacity="1.000000" fill-rule="evenodd"/>
	<rect id="Rectangle 2" x="83.000000" y="217.537292" width="21.677019" height="1.000000" transform="rotate(-90 83.000000 217.537292)" fill="#FFFFFF" fill-opacity="1.000000"/>
</svg>
