<svg width="11.000000" height="14.000000" viewBox="0 0 11 14" fill="none" xmlns="http://www.w3.org/2000/svg" xmlns:xlink="http://www.w3.org/1999/xlink">
	<desc>
			Created with Pixso.
	</desc>
	<defs/>
	<path d="M8.78647 1.45972C7.84851 0.708374 6.65891 0.294678 5.43369 0.294678C4.20847 0.294678 3.01761 0.708374 2.08087 1.45972C0.856903 2.44067 0.13501 3.83533 0.0490723 5.38574C-0.035614 6.91553 0.537689 8.41443 1.62051 9.49731L5.15118 13.028C5.28992 13.1654 5.53055 13.1667 5.66925 13.0292L9.25055 9.49475C10.3309 8.41443 10.903 6.91663 10.8195 5.38574C10.7324 3.83521 10.0117 2.44055 8.78647 1.45972L8.78647 1.45972ZM3.02744 5.68433C3.02744 7.01135 4.10654 8.09058 5.43369 8.09058C6.76077 8.09058 7.84113 7.01147 7.8399 5.68433C7.8399 4.35718 6.7608 3.27808 5.43369 3.27808C4.10657 3.27808 3.02744 4.35718 3.02744 5.68433Z" clip-rule="evenodd" fill="#FFFFFF" fill-opacity="1.000000" fill-rule="evenodd"/>
	<path d="M5.43 4.51C4.78 4.51 4.26 5.03 4.26 5.68C4.26 6.33 4.78 6.85 5.43 6.85C6.08 6.85 6.6 6.33 6.6 5.68C6.6 5.03 6.08 4.51 5.43 4.51Z" fill="#FFFFFF" fill-opacity="1.000000" fill-rule="nonzero"/>
</svg>
