<svg width="47.000000" height="48.000000" viewBox="0 0 47 48" fill="none" xmlns="http://www.w3.org/2000/svg" xmlns:xlink="http://www.w3.org/1999/xlink">
	<desc>
			Created with Pixso.
	</desc>
	<defs>
		<filter id="filter_0_2932_dd" x="0.000000" y="0.000000" width="47.000000" height="48.000000" filterUnits="userSpaceOnUse" color-interpolation-filters="sRGB">
			<feFlood flood-opacity="0" result="BackgroundImageFix"/>
			<feColorMatrix in="SourceAlpha" type="matrix" values="0 0 0 0 0 0 0 0 0 0 0 0 0 0 0 0 0 0 127 0" result="hardAlpha"/>
			<feOffset dx="0" dy="4"/>
			<feGaussianBlur stdDeviation="1.33333"/>
			<feComposite in2="hardAlpha" operator="out" k2="-1" k3="1"/>
			<feColorMatrix type="matrix" values="0 0 0 0 0 0 0 0 0 0 0 0 0 0 0 0 0 0 0.25 0"/>
			<feBlend mode="normal" in2="BackgroundImageFix" result="effect_dropShadow_1"/>
			<feBlend mode="normal" in="SourceGraphic" in2="effect_dropShadow_1" result="shape"/>
		</filter>
	</defs>
	<g filter="url(#filter_0_2932_dd)">
		<path d="M42.03 32.18L33.75 32.18C33.48 32.18 33.26 32.4 33.26 32.67C33.26 32.94 33.48 33.15 33.75 33.15L42.03 33.15C42.3 33.15 42.51 32.94 42.51 32.67C42.51 32.4 42.3 32.18 42.03 32.18Z" fill="#FFFFFF" fill-opacity="1.000000" fill-rule="nonzero"/>
		<path d="M33.75 32.18C33.48 32.18 33.26 32.4 33.26 32.67C33.26 32.94 33.48 33.15 33.75 33.15L42.03 33.15C42.3 33.15 42.51 32.94 42.51 32.67C42.51 32.4 42.3 32.18 42.03 32.18L33.75 32.18Z" stroke="#222532" stroke-opacity="1.000000" stroke-width="0.000000"/>
		<path d="M42.03 38.34L32.74 38.34C32.48 38.34 32.26 38.55 32.26 38.82C32.26 39.09 32.48 39.31 32.74 39.31L42.03 39.31C42.3 39.31 42.51 39.09 42.51 38.82C42.51 38.55 42.3 38.34 42.03 38.34Z" fill="#FFFFFF" fill-opacity="1.000000" fill-rule="nonzero"/>
		<path d="M32.74 38.34C32.48 38.34 32.26 38.55 32.26 38.82C32.26 39.09 32.48 39.31 32.74 39.31L42.03 39.31C42.3 39.31 42.51 39.09 42.51 38.82C42.51 38.55 42.3 38.34 42.03 38.34L32.74 38.34Z" stroke="#222532" stroke-opacity="1.000000" stroke-width="0.000000"/>
		<path d="M4.48 35.69L11.97 35.69C12.23 35.69 12.45 35.47 12.45 35.2C12.45 34.93 12.23 34.72 11.97 34.72L4.48 34.72C4.21 34.72 4 34.93 4 35.2C4 35.47 4.21 35.69 4.48 35.69Z" fill="#FFFFFF" fill-opacity="1.000000" fill-rule="nonzero"/>
		<path d="M11.97 35.69C12.23 35.69 12.45 35.47 12.45 35.2C12.45 34.93 12.23 34.72 11.97 34.72L4.48 34.72C4.21 34.72 4 34.93 4 35.2C4 35.47 4.21 35.69 4.48 35.69L11.97 35.69Z" stroke="#222532" stroke-opacity="1.000000" stroke-width="0.000000"/>
		<mask id="mask_0_2938" fill="white">
			<path d="M8.29965 0.627441C8.15295 0.479614 7.931 0.44165 7.74484 0.534546C5.93927 1.43506 4.81647 3.24744 4.81647 5.26636C4.81647 8.18018 7.17682 10.552 10.0791 10.552C12.0877 10.552 13.8933 9.4259 14.7905 7.61169C14.8826 7.4259 14.8469 7.20032 14.7002 7.05237C14.5535 6.90454 14.3315 6.8667 14.1454 6.95947C13.5435 7.25903 12.9022 7.4126 12.2383 7.4126C9.86847 7.4126 7.93878 5.47705 7.93878 3.09973C7.93878 2.43433 8.08923 1.79163 8.38828 1.18884C8.48233 1.0011 8.4447 0.775513 8.2999 0.627686L8.29965 0.627441ZM13.1277 8.30701C12.8342 8.35815 12.5389 8.38281 12.238 8.38281L12.2381 8.38306C9.33597 8.38306 6.97559 6.01318 6.97748 3.09937C6.97748 2.79602 7.00192 2.49841 7.0527 2.20459C6.24774 2.9989 5.77942 4.09082 5.77942 5.26624C5.77942 7.64539 7.70911 9.58093 10.0789 9.58093C11.2506 9.58093 12.3358 9.11267 13.1277 8.30701Z" clip-rule="evenodd" fill="" fill-opacity="1.000000" fill-rule="evenodd"/>
		</mask>
		<path d="M8.29965 0.627441C8.15295 0.479614 7.931 0.44165 7.74484 0.534546C5.93927 1.43506 4.81647 3.24744 4.81647 5.26636C4.81647 8.18018 7.17682 10.552 10.0791 10.552C12.0877 10.552 13.8933 9.4259 14.7905 7.61169C14.8826 7.4259 14.8469 7.20032 14.7002 7.05237C14.5535 6.90454 14.3315 6.8667 14.1454 6.95947C13.5435 7.25903 12.9022 7.4126 12.2383 7.4126C9.86847 7.4126 7.93878 5.47705 7.93878 3.09973C7.93878 2.43433 8.08923 1.79163 8.38828 1.18884C8.48233 1.0011 8.4447 0.775513 8.2999 0.627686L8.29965 0.627441ZM13.1277 8.30701C12.8342 8.35815 12.5389 8.38281 12.238 8.38281L12.2381 8.38306C9.33597 8.38306 6.97559 6.01318 6.97748 3.09937C6.97748 2.79602 7.00192 2.49841 7.0527 2.20459C6.24774 2.9989 5.77942 4.09082 5.77942 5.26624C5.77942 7.64539 7.70911 9.58093 10.0789 9.58093C11.2506 9.58093 12.3358 9.11267 13.1277 8.30701Z" clip-rule="evenodd" fill="#FFFFFF" fill-opacity="1.000000" fill-rule="evenodd" mask="url(#mask_0_2938)"/>
		<path d="" fill="#222532" fill-opacity="1.000000" fill-rule="nonzero"/>
		<mask id="mask_0_2941" fill="white">
			<path d="M42.0371 24.4099L42.039 24.4099L42.0392 24.4099C42.3062 24.4119 42.5207 24.6279 42.5188 24.8971L42.5 29.0564C42.5 29.2688 42.3608 29.4564 42.1595 29.519C41.9583 29.5815 41.7401 29.5038 41.6216 29.3275L38.8118 25.1511L38.8118 29.0564C38.8118 29.3237 38.5955 29.5417 38.3303 29.5417L27.286 29.5417C26.75 31.2953 25.1419 32.5807 23.2329 32.63C23.2141 32.63 23.1953 32.6356 23.1765 32.6356C23.1709 32.6356 23.1634 32.6338 23.1577 32.6338C23.1445 32.6338 23.1333 32.6356 23.1201 32.6356C21.1603 32.6356 19.4996 31.3314 18.9523 29.5417L8.22824 29.5417C7.96307 29.5417 7.74677 29.3237 7.74677 29.0564L7.74677 25.1511L4.93689 29.3275C4.84473 29.4622 4.69427 29.5399 4.53818 29.5399C4.48926 29.5399 4.44226 29.5342 4.39523 29.519C4.194 29.4546 4.05481 29.2668 4.0567 29.0526L4.07361 24.7113C4.0755 24.4441 4.28992 24.2279 4.55508 24.2279L4.55698 24.2279C4.82217 24.2279 5.03845 24.4479 5.03659 24.7151L5.0253 27.4659L22.8796 0.923462C23.0602 0.65625 23.4984 0.65625 23.677 0.923462L41.5443 27.4849L41.5556 24.8933C41.5575 24.6261 41.7719 24.4099 42.0371 24.4099ZM33.6278 28.5715L37.8482 28.5715L37.8507 23.7202L23.2802 2.06104L8.70953 23.7202L8.70953 28.5715L12.962 28.5715L12.962 25.1364C12.962 24.9847 13.0316 24.8425 13.1501 24.7516C13.2459 24.6759 22.8134 17.1267 22.8134 8.19019C22.8134 7.92285 23.0297 7.70483 23.2949 7.70483C23.5601 7.70483 23.7764 7.92285 23.7764 8.19019C23.7764 17.1267 33.3438 24.6758 33.4397 24.7516C33.5582 24.8445 33.6278 24.9867 33.6278 25.1364L33.6278 28.5715ZM23.4905 21.0889C23.308 20.8671 22.9319 20.8671 22.7494 21.0889C22.3413 21.5837 18.7603 25.9969 18.7603 28.2571C18.7603 28.3632 18.7697 28.4675 18.7753 28.5718L13.9268 28.5718L13.9268 25.3717C14.555 24.8597 16.637 23.0853 18.7455 20.452C20.457 18.3156 22.4111 15.2955 23.2969 11.8527C24.1828 15.2974 26.1369 18.3152 27.8484 20.452C29.9568 23.0852 32.0388 24.8596 32.6671 25.3717L32.6671 28.5718L27.4628 28.5718C27.4703 28.4675 27.4778 28.3632 27.4778 28.2571C27.4797 25.9973 23.8987 21.584 23.4906 21.0889L23.4905 21.0889ZM25.6684 30.1296C25.6684 30.2738 25.6496 30.4103 25.627 30.5468L25.627 30.5469C26.1781 29.9402 26.5166 29.1382 26.5128 28.2567C26.5128 26.8026 24.3236 23.7087 23.1161 22.1694C21.9106 23.7087 19.7195 26.8046 19.7195 28.2567C19.7195 29.2122 20.1163 30.0767 20.7501 30.6965C20.7087 30.5127 20.6805 30.325 20.6805 30.1296C20.6805 28.9012 22.4503 26.6926 22.804 26.2623C22.9864 26.0405 23.3625 26.0405 23.545 26.2623C23.9005 26.6926 25.6684 28.9012 25.6684 30.1296ZM23.2328 31.6595C23.2065 31.6615 23.182 31.6633 23.1575 31.6633C22.3224 31.652 21.6454 30.9695 21.6454 30.1316C21.6454 29.58 22.4504 28.3098 23.1764 27.3524C23.9023 28.3098 24.7073 29.58 24.7073 30.1316C24.7073 30.9563 24.0509 31.6293 23.2328 31.6595Z" clip-rule="evenodd" fill="" fill-opacity="1.000000" fill-rule="evenodd"/>
		</mask>
		<path d="M42.0371 24.4099L42.039 24.4099L42.0392 24.4099C42.3062 24.4119 42.5207 24.6279 42.5188 24.8971L42.5 29.0564C42.5 29.2688 42.3608 29.4564 42.1595 29.519C41.9583 29.5815 41.7401 29.5038 41.6216 29.3275L38.8118 25.1511L38.8118 29.0564C38.8118 29.3237 38.5955 29.5417 38.3303 29.5417L27.286 29.5417C26.75 31.2953 25.1419 32.5807 23.2329 32.63C23.2141 32.63 23.1953 32.6356 23.1765 32.6356C23.1709 32.6356 23.1634 32.6338 23.1577 32.6338C23.1445 32.6338 23.1333 32.6356 23.1201 32.6356C21.1603 32.6356 19.4996 31.3314 18.9523 29.5417L8.22824 29.5417C7.96307 29.5417 7.74677 29.3237 7.74677 29.0564L7.74677 25.1511L4.93689 29.3275C4.84473 29.4622 4.69427 29.5399 4.53818 29.5399C4.48926 29.5399 4.44226 29.5342 4.39523 29.519C4.194 29.4546 4.05481 29.2668 4.0567 29.0526L4.07361 24.7113C4.0755 24.4441 4.28992 24.2279 4.55508 24.2279L4.55698 24.2279C4.82217 24.2279 5.03845 24.4479 5.03659 24.7151L5.0253 27.4659L22.8796 0.923462C23.0602 0.65625 23.4984 0.65625 23.677 0.923462L41.5443 27.4849L41.5556 24.8933C41.5575 24.6261 41.7719 24.4099 42.0371 24.4099ZM33.6278 28.5715L37.8482 28.5715L37.8507 23.7202L23.2802 2.06104L8.70953 23.7202L8.70953 28.5715L12.962 28.5715L12.962 25.1364C12.962 24.9847 13.0316 24.8425 13.1501 24.7516C13.2459 24.6759 22.8134 17.1267 22.8134 8.19019C22.8134 7.92285 23.0297 7.70483 23.2949 7.70483C23.5601 7.70483 23.7764 7.92285 23.7764 8.19019C23.7764 17.1267 33.3438 24.6758 33.4397 24.7516C33.5582 24.8445 33.6278 24.9867 33.6278 25.1364L33.6278 28.5715ZM23.4905 21.0889C23.308 20.8671 22.9319 20.8671 22.7494 21.0889C22.3413 21.5837 18.7603 25.9969 18.7603 28.2571C18.7603 28.3632 18.7697 28.4675 18.7753 28.5718L13.9268 28.5718L13.9268 25.3717C14.555 24.8597 16.637 23.0853 18.7455 20.452C20.457 18.3156 22.4111 15.2955 23.2969 11.8527C24.1828 15.2974 26.1369 18.3152 27.8484 20.452C29.9568 23.0852 32.0388 24.8596 32.6671 25.3717L32.6671 28.5718L27.4628 28.5718C27.4703 28.4675 27.4778 28.3632 27.4778 28.2571C27.4797 25.9973 23.8987 21.584 23.4906 21.0889L23.4905 21.0889ZM25.6684 30.1296C25.6684 30.2738 25.6496 30.4103 25.627 30.5468L25.627 30.5469C26.1781 29.9402 26.5166 29.1382 26.5128 28.2567C26.5128 26.8026 24.3236 23.7087 23.1161 22.1694C21.9106 23.7087 19.7195 26.8046 19.7195 28.2567C19.7195 29.2122 20.1163 30.0767 20.7501 30.6965C20.7087 30.5127 20.6805 30.325 20.6805 30.1296C20.6805 28.9012 22.4503 26.6926 22.804 26.2623C22.9864 26.0405 23.3625 26.0405 23.545 26.2623C23.9005 26.6926 25.6684 28.9012 25.6684 30.1296ZM23.2328 31.6595C23.2065 31.6615 23.182 31.6633 23.1575 31.6633C22.3224 31.652 21.6454 30.9695 21.6454 30.1316C21.6454 29.58 22.4504 28.3098 23.1764 27.3524C23.9023 28.3098 24.7073 29.58 24.7073 30.1316C24.7073 30.9563 24.0509 31.6293 23.2328 31.6595Z" clip-rule="evenodd" fill="#FFFFFF" fill-opacity="1.000000" fill-rule="evenodd" mask="url(#mask_0_2941)"/>
		<path d="" fill="#222532" fill-opacity="1.000000" fill-rule="nonzero"/>
		<mask id="mask_0_2947" fill="white">
			<path d="M30.5734 34.8064C30.6299 34.6908 30.6393 34.5543 30.596 34.433L29.8869 32.3723C29.8004 32.1221 29.5315 31.9874 29.2813 32.0708L23.3644 34.0443L17.1634 32.2775C16.9095 32.2054 16.6462 32.3514 16.5709 32.6074L15.9559 34.6965C15.9202 34.8217 15.9333 34.9543 15.9954 35.0681C16.0575 35.1818 16.1628 35.2653 16.287 35.3013L18.0718 35.8093L16.586 36.3041C16.4637 36.3458 16.3622 36.433 16.3058 36.5505C16.2493 36.6661 16.2399 36.8027 16.2832 36.9241L16.9923 38.9847C17.0581 39.1857 17.2443 39.3108 17.4437 39.3108C17.4944 39.3108 17.5452 39.3032 17.5941 39.2861L23.2178 37.4113L29.3456 39.1572C29.3889 39.1686 29.434 39.1761 29.4773 39.1761C29.6861 39.1761 29.876 39.0397 29.9381 38.8292L30.5531 36.7401C30.5888 36.615 30.5757 36.4823 30.5136 36.3685C30.4515 36.2549 30.3462 36.1714 30.222 36.1354L28.5105 35.6482L30.2916 35.0548C30.4158 35.0131 30.5154 34.924 30.5738 34.8064L30.5734 34.8064ZM17.3498 37.0719L17.7429 38.215L29.5262 34.287L29.1331 33.1438L17.3498 37.0719ZM17.3591 33.3411L17.0168 34.4993L19.7025 35.2653L21.7338 34.5884L17.3591 33.3411ZM29.4901 36.9354L29.1478 38.0936L24.8483 36.8672L26.8796 36.1903L29.4901 36.9354Z" clip-rule="evenodd" fill="" fill-opacity="1.000000" fill-rule="evenodd"/>
		</mask>
		<path d="M30.5734 34.8064C30.6299 34.6908 30.6393 34.5543 30.596 34.433L29.8869 32.3723C29.8004 32.1221 29.5315 31.9874 29.2813 32.0708L23.3644 34.0443L17.1634 32.2775C16.9095 32.2054 16.6462 32.3514 16.5709 32.6074L15.9559 34.6965C15.9202 34.8217 15.9333 34.9543 15.9954 35.0681C16.0575 35.1818 16.1628 35.2653 16.287 35.3013L18.0718 35.8093L16.586 36.3041C16.4637 36.3458 16.3622 36.433 16.3058 36.5505C16.2493 36.6661 16.2399 36.8027 16.2832 36.9241L16.9923 38.9847C17.0581 39.1857 17.2443 39.3108 17.4437 39.3108C17.4944 39.3108 17.5452 39.3032 17.5941 39.2861L23.2178 37.4113L29.3456 39.1572C29.3889 39.1686 29.434 39.1761 29.4773 39.1761C29.6861 39.1761 29.876 39.0397 29.9381 38.8292L30.5531 36.7401C30.5888 36.615 30.5757 36.4823 30.5136 36.3685C30.4515 36.2549 30.3462 36.1714 30.222 36.1354L28.5105 35.6482L30.2916 35.0548C30.4158 35.0131 30.5154 34.924 30.5738 34.8064L30.5734 34.8064ZM17.3498 37.0719L17.7429 38.215L29.5262 34.287L29.1331 33.1438L17.3498 37.0719ZM17.3591 33.3411L17.0168 34.4993L19.7025 35.2653L21.7338 34.5884L17.3591 33.3411ZM29.4901 36.9354L29.1478 38.0936L24.8483 36.8672L26.8796 36.1903L29.4901 36.9354Z" clip-rule="evenodd" fill="#FFFFFF" fill-opacity="1.000000" fill-rule="evenodd" mask="url(#mask_0_2947)"/>
		<path d="" fill="#222532" fill-opacity="1.000000" fill-rule="nonzero"/>
	</g>
</svg>
