<svg width="51.000000" height="32.000000" viewBox="0 0 51 32" fill="none" xmlns="http://www.w3.org/2000/svg" xmlns:xlink="http://www.w3.org/1999/xlink">
	<desc>
			Created with Pixso.
	</desc>
	<defs/>
	<mask id="mask_0_2912" fill="white">
		<path d="M48.75 21.2761L48.75 24.0226L48.7496 24.0227C49.3199 24.1387 49.7496 24.6393 49.7496 25.2345L49.7496 26.2222C49.7496 26.8213 49.3199 27.3201 48.7496 27.436L48.7496 27.4611L42.1851 27.4611C41.8218 29.7012 39.8629 31.4194 37.4995 31.4194C35.1362 31.4194 33.1773 29.7012 32.8159 27.4611L15.4349 27.4611C15.0716 29.7012 13.1127 31.4194 10.7494 31.4194C8.38608 31.4194 6.42517 29.6992 6.06384 27.4611L2.24939 27.4611L1.50134 27.463C0.809937 27.463 0.24939 26.9064 0.24939 26.2241L0.24939 25.2365C0.24939 24.5522 0.81189 23.9976 1.50134 23.9976L2.24939 23.9976L2.24939 12.8667C2.24939 9.45532 5.05414 6.67981 8.5014 6.67981L14.2709 6.67603L14.2709 4.70264C8.18539 4.12866 3.02893 3.05591 1.46838 1.5116C1.32382 1.36975 1.24802 1.18005 1.24802 0.987671C1.24802 0.870605 1.27603 0.752686 1.33362 0.643799C1.48596 0.357788 1.8063 0.199219 2.13052 0.257202C7.10703 1.13855 14.8455 1.25647 21.7555 1.25647C23.2243 1.25647 24.6677 1.25256 26.0544 1.24683C27.3415 1.24292 28.5798 1.23718 29.7497 1.23718L36.1872 1.23901L36.1891 1.23901C40.5466 1.23901 43.2302 1.21008 46.7106 1.04187C47.0544 1.02832 47.3727 1.24866 47.4684 1.57922C47.488 1.64697 47.4975 1.7157 47.4975 1.78369C47.4975 2.047 47.3556 2.29797 47.1149 2.43164C46.613 2.70996 45.988 2.96887 45.2477 3.20862L45.2477 4.71033C45.2477 5.37915 44.8883 5.95703 44.2848 6.25854C44.029 6.38611 43.7594 6.44983 43.4919 6.44983C43.1286 6.44983 42.7673 6.33386 42.4548 6.10388L40.0349 4.32764C36.9529 4.77222 33.1366 5.05444 28.7499 5.15491L28.7499 6.68176L33.9979 6.67993C37.3419 6.67993 40.4258 7.78735 42.9024 9.64868L43.1075 9.80713C45.1797 11.4208 46.8047 13.572 47.7676 16.048L47.7734 16.0596L47.7871 16.0924C47.8125 16.1639 47.8418 16.2316 47.8672 16.3011L48.166 17.0685L48.1231 17.0685C48.5293 18.4021 48.75 19.8149 48.75 21.2761ZM45.9317 15.5859L35.0002 15.5859C34.8654 15.5859 34.7502 15.4718 34.7502 15.3385L34.7502 11.3801C34.7502 11.2468 34.8654 11.1328 35.0002 11.1328L42.3792 11.1328C43.8811 12.3503 45.0921 13.8716 45.9319 15.5859L45.9317 15.5859ZM43.75 4.71033C43.75 4.81287 43.7051 4.88623 43.6114 4.93262C43.5176 4.979 43.4336 4.97131 43.3496 4.90942L42.0918 3.98755C42.6817 3.87537 43.2344 3.75562 43.75 3.62988L43.75 4.71033ZM21.758 2.7428C23.2287 2.7428 24.6721 2.73694 26.0608 2.73315C27.3459 2.72729 28.5823 2.72351 29.7502 2.72351L36.1897 2.72925L36.1917 2.72925C37.9182 2.72925 39.385 2.72351 40.7425 2.70801C36.7601 3.34778 31.2735 3.71106 25.0005 3.71106C18.1745 3.71106 12.3715 3.17761 8.33646 2.42383C12.5376 2.6925 17.319 2.7428 21.7585 2.7428L21.758 2.7428ZM15.7715 4.83594C18.7812 5.07373 21.957 5.19543 25 5.19543C25.7637 5.19543 26.5137 5.1897 27.25 5.18005L27.25 6.67981L15.7715 6.67981L15.7715 4.83594ZM10.75 29.9353C8.95706 29.9353 7.50003 28.4934 7.50003 26.7191C7.50003 24.9448 8.95706 23.5031 10.75 23.5031C12.543 23.5031 14 24.9448 14 26.7191C14 28.4934 12.543 29.9353 10.75 29.9353ZM37.5 29.9353C35.7071 29.9353 34.25 28.4934 34.25 26.7191C34.25 24.9448 35.7071 23.5031 37.5 23.5031C39.293 23.5031 40.75 24.9448 40.75 26.7191C40.75 28.4934 39.293 29.9353 37.5 29.9353ZM42.1856 25.9769C41.8242 23.7369 39.8633 22.0187 37.5 22.0187C35.1367 22.0187 33.1778 23.7369 32.8145 25.9769L15.4355 25.9769C15.0741 23.7369 13.1132 22.0187 10.7499 22.0187C8.38663 22.0187 6.42767 23.7369 6.06436 25.9769L1.74991 25.9769L1.74991 25.4822L4.74991 25.4822L4.74991 23.9978L3.74991 23.9978L3.74991 17.0707L11.2849 17.0707L11.2849 15.5863L3.74991 15.5863L3.74991 12.8669C3.74991 10.275 5.88077 8.16443 8.50186 8.16443L33.9979 8.16443C36.201 8.16443 38.2811 8.70374 40.1114 9.6488L34.9999 9.6488C34.035 9.6488 33.2499 10.4258 33.2499 11.3806L33.2499 15.339C33.2499 16.2937 34.035 17.0707 34.9999 17.0707L46.5469 17.0707C47 18.3927 47.25 19.8055 47.25 21.2783L47.25 23.9978L43.75 23.9978L43.75 25.4822L48.25 25.4822L48.25 25.9769L42.1856 25.9769Z" clip-rule="evenodd" fill="" fill-opacity="1.000000" fill-rule="evenodd"/>
	</mask>
	<path d="M48.75 21.2761L48.75 24.0226L48.7496 24.0227C49.3199 24.1387 49.7496 24.6393 49.7496 25.2345L49.7496 26.2222C49.7496 26.8213 49.3199 27.3201 48.7496 27.436L48.7496 27.4611L42.1851 27.4611C41.8218 29.7012 39.8629 31.4194 37.4995 31.4194C35.1362 31.4194 33.1773 29.7012 32.8159 27.4611L15.4349 27.4611C15.0716 29.7012 13.1127 31.4194 10.7494 31.4194C8.38608 31.4194 6.42517 29.6992 6.06384 27.4611L2.24939 27.4611L1.50134 27.463C0.809937 27.463 0.24939 26.9064 0.24939 26.2241L0.24939 25.2365C0.24939 24.5522 0.81189 23.9976 1.50134 23.9976L2.24939 23.9976L2.24939 12.8667C2.24939 9.45532 5.05414 6.67981 8.5014 6.67981L14.2709 6.67603L14.2709 4.70264C8.18539 4.12866 3.02893 3.05591 1.46838 1.5116C1.32382 1.36975 1.24802 1.18005 1.24802 0.987671C1.24802 0.870605 1.27603 0.752686 1.33362 0.643799C1.48596 0.357788 1.8063 0.199219 2.13052 0.257202C7.10703 1.13855 14.8455 1.25647 21.7555 1.25647C23.2243 1.25647 24.6677 1.25256 26.0544 1.24683C27.3415 1.24292 28.5798 1.23718 29.7497 1.23718L36.1872 1.23901L36.1891 1.23901C40.5466 1.23901 43.2302 1.21008 46.7106 1.04187C47.0544 1.02832 47.3727 1.24866 47.4684 1.57922C47.488 1.64697 47.4975 1.7157 47.4975 1.78369C47.4975 2.047 47.3556 2.29797 47.1149 2.43164C46.613 2.70996 45.988 2.96887 45.2477 3.20862L45.2477 4.71033C45.2477 5.37915 44.8883 5.95703 44.2848 6.25854C44.029 6.38611 43.7594 6.44983 43.4919 6.44983C43.1286 6.44983 42.7673 6.33386 42.4548 6.10388L40.0349 4.32764C36.9529 4.77222 33.1366 5.05444 28.7499 5.15491L28.7499 6.68176L33.9979 6.67993C37.3419 6.67993 40.4258 7.78735 42.9024 9.64868L43.1075 9.80713C45.1797 11.4208 46.8047 13.572 47.7676 16.048L47.7734 16.0596L47.7871 16.0924C47.8125 16.1639 47.8418 16.2316 47.8672 16.3011L48.166 17.0685L48.1231 17.0685C48.5293 18.4021 48.75 19.8149 48.75 21.2761ZM45.9317 15.5859L35.0002 15.5859C34.8654 15.5859 34.7502 15.4718 34.7502 15.3385L34.7502 11.3801C34.7502 11.2468 34.8654 11.1328 35.0002 11.1328L42.3792 11.1328C43.8811 12.3503 45.0921 13.8716 45.9319 15.5859L45.9317 15.5859ZM43.75 4.71033C43.75 4.81287 43.7051 4.88623 43.6114 4.93262C43.5176 4.979 43.4336 4.97131 43.3496 4.90942L42.0918 3.98755C42.6817 3.87537 43.2344 3.75562 43.75 3.62988L43.75 4.71033ZM21.758 2.7428C23.2287 2.7428 24.6721 2.73694 26.0608 2.73315C27.3459 2.72729 28.5823 2.72351 29.7502 2.72351L36.1897 2.72925L36.1917 2.72925C37.9182 2.72925 39.385 2.72351 40.7425 2.70801C36.7601 3.34778 31.2735 3.71106 25.0005 3.71106C18.1745 3.71106 12.3715 3.17761 8.33646 2.42383C12.5376 2.6925 17.319 2.7428 21.7585 2.7428L21.758 2.7428ZM15.7715 4.83594C18.7812 5.07373 21.957 5.19543 25 5.19543C25.7637 5.19543 26.5137 5.1897 27.25 5.18005L27.25 6.67981L15.7715 6.67981L15.7715 4.83594ZM10.75 29.9353C8.95706 29.9353 7.50003 28.4934 7.50003 26.7191C7.50003 24.9448 8.95706 23.5031 10.75 23.5031C12.543 23.5031 14 24.9448 14 26.7191C14 28.4934 12.543 29.9353 10.75 29.9353ZM37.5 29.9353C35.7071 29.9353 34.25 28.4934 34.25 26.7191C34.25 24.9448 35.7071 23.5031 37.5 23.5031C39.293 23.5031 40.75 24.9448 40.75 26.7191C40.75 28.4934 39.293 29.9353 37.5 29.9353ZM42.1856 25.9769C41.8242 23.7369 39.8633 22.0187 37.5 22.0187C35.1367 22.0187 33.1778 23.7369 32.8145 25.9769L15.4355 25.9769C15.0741 23.7369 13.1132 22.0187 10.7499 22.0187C8.38663 22.0187 6.42767 23.7369 6.06436 25.9769L1.74991 25.9769L1.74991 25.4822L4.74991 25.4822L4.74991 23.9978L3.74991 23.9978L3.74991 17.0707L11.2849 17.0707L11.2849 15.5863L3.74991 15.5863L3.74991 12.8669C3.74991 10.275 5.88077 8.16443 8.50186 8.16443L33.9979 8.16443C36.201 8.16443 38.2811 8.70374 40.1114 9.6488L34.9999 9.6488C34.035 9.6488 33.2499 10.4258 33.2499 11.3806L33.2499 15.339C33.2499 16.2937 34.035 17.0707 34.9999 17.0707L46.5469 17.0707C47 18.3927 47.25 19.8055 47.25 21.2783L47.25 23.9978L43.75 23.9978L43.75 25.4822L48.25 25.4822L48.25 25.9769L42.1856 25.9769Z" clip-rule="evenodd" fill="#FFFFFF" fill-opacity="1.000000" fill-rule="evenodd" mask="url(#mask_0_2912)"/>
	<path d="M49.05 21.2761L49.05 24.2479L48.8332 24.3108L48.7496 24.0227L48.8094 23.7288Q50.0496 23.981 50.0496 25.2345L50.0496 26.2222Q50.0496 27.4778 48.8094 27.73L48.7496 27.436L49.0496 27.436L49.0496 27.7611L42.1851 27.7611L42.1851 27.4611L42.4812 27.5092Q41.7984 31.7195 37.4995 31.7195Q33.1989 31.7195 32.5198 27.5089L32.8159 27.4611L32.8159 27.7611L15.4349 27.7611L15.4349 27.4611L15.7311 27.5092Q15.0482 31.7195 10.7494 31.7195Q6.44745 31.7195 5.76767 27.5089L6.06384 27.4611L6.06384 27.7611L2.24939 27.7611L1.50211 27.7631Q0.85968 27.7631 0.404968 27.3125Q-0.0505981 26.8612 -0.0505981 26.2241L-0.0505981 25.2365Q-0.0505981 24.5984 0.405914 24.1471Q0.860657 23.6975 1.50134 23.6975L2.24939 23.6975L2.24939 23.9976L1.9494 23.9976L1.9494 12.8667Q1.9494 10.183 3.87164 8.28076Q5.7926 6.37988 8.5014 6.37988L14.2707 6.37598L14.2709 6.67603L13.9709 6.67603L13.9709 4.70264L14.2709 4.70264L14.2427 5.00134Q3.54904 3.99268 1.25739 1.72485Q0.948029 1.42126 0.948029 0.987671Q0.948029 0.731079 1.06845 0.50354Q1.42877 -0.172974 2.18335 -0.0380859Q7.7991 0.956421 21.7555 0.956421L26.0537 0.946777L29.7489 0.937134L36.1873 0.939087L36.1891 0.939087Q42.6227 0.939087 46.6962 0.74231Q47.5289 0.709473 47.7566 1.49573Q47.7975 1.63708 47.7975 1.78369Q47.7975 2.39563 47.2606 2.69385Q46.4876 3.12244 45.3401 3.49402L45.2477 3.20862L45.5477 3.20862L45.5477 4.71033Q45.5477 5.96289 44.4189 6.52686Q43.9717 6.74988 43.4919 6.74988Q42.8263 6.74988 42.2769 6.34546L39.8574 4.56958L40.0349 4.32764L40.0777 4.62463Q35.3726 5.30322 28.7567 5.45483L28.7499 5.15491L29.0499 5.15491L29.0499 6.68176L28.7499 6.68176L28.7498 6.38184L33.9977 6.37988Q39.0524 6.37988 43.0826 9.40881L43.2909 9.5697Q46.5602 12.1156 48.0472 15.9392L47.7676 16.048L48.0353 15.9126L48.0462 15.9341L48.0672 15.9845L48.0698 15.9919Q48.0817 16.0254 48.1092 16.0948Q48.1359 16.1624 48.149 16.1982L48.6048 17.3684L48.1231 17.3684L48.1231 17.0685L48.41 16.981Q49.05 19.0818 49.05 21.2761ZM48.45 21.2761Q48.45 19.1713 47.8361 17.1559L47.7181 16.7684L48.166 16.7684L48.166 17.0685L47.8865 17.1772L47.5854 16.4039Q47.575 16.3756 47.5513 16.3158Q47.5198 16.2362 47.5044 16.1927L47.7871 16.0924L47.5101 16.2076L47.4965 16.1748L47.7734 16.0596L47.5057 16.1948L47.4933 16.1702L47.488 16.1566Q46.061 12.4873 42.924 10.0444L42.7221 9.88843Q38.852 6.97986 33.998 6.97986L28.4499 6.98193L28.4499 4.86169L28.743 4.85498Q35.3227 4.70422 39.992 4.03076L40.1135 4.01331L42.6326 5.8623Q43.0233 6.1499 43.4919 6.1499Q43.8304 6.1499 44.1507 5.99011Q44.9477 5.59192 44.9477 4.71033L44.9477 2.99036L45.1553 2.9231Q46.2475 2.56958 46.9692 2.16931Q47.1975 2.0426 47.1975 1.78369Q47.1975 1.72217 47.1803 1.66272Q47.0832 1.32751 46.7251 1.34155Q42.6373 1.53906 36.1891 1.53906L36.1871 1.53906L29.7505 1.53711L26.0551 1.54675L21.7555 1.55652Q7.7464 1.55652 2.0777 0.55249Q1.75305 0.494507 1.59882 0.784058Q1.54803 0.880005 1.54803 0.987671Q1.54803 1.16943 1.67941 1.29834Q3.81873 3.41541 14.2991 4.40393L14.5709 4.42957L14.5709 6.97583L8.5014 6.97986Q6.03931 6.97986 4.2937 8.70728Q2.54938 10.4333 2.54938 12.8667L2.54938 24.2976L1.50134 24.2976Q0.549377 24.2976 0.549377 25.2365L0.549377 26.2241Q0.549377 27.1631 1.50058 27.1631L2.24939 27.1611L6.31931 27.1611L6.36002 27.4133Q6.95834 31.1194 10.7494 31.1194Q14.5377 31.1194 15.1388 27.4131L15.1797 27.1611L33.0714 27.1611L33.1121 27.4133Q33.7099 31.1194 37.4995 31.1194Q41.2878 31.1194 41.8889 27.4131L41.9298 27.1611L48.7496 27.1611L48.7496 27.4611L48.4496 27.4611L48.4496 27.1908L48.6898 27.142Q49.4496 26.9875 49.4496 26.2222L49.4496 25.2345Q49.4496 24.4712 48.6898 24.3167L48.666 23.7346L48.6664 23.7345L48.75 24.0226L48.45 24.0226L48.45 21.2761ZM45.9317 15.8859L35.0002 15.8859Q34.7758 15.8859 34.6136 15.7255Q34.4502 15.5637 34.4502 15.3385L34.4502 11.3801Q34.4502 10.8328 35.0002 10.8328L42.4855 10.8328L42.5681 10.8998Q44.894 12.7854 46.2013 15.4539L46.413 15.8859L45.9317 15.8859ZM45.9317 15.2859L45.9319 15.2859L45.9319 15.5859L45.6625 15.7179Q44.4134 13.1681 42.1902 11.3658L42.3792 11.1328L42.3792 11.4327L35.0002 11.4327Q35.0502 11.4327 35.0502 11.3801L35.0502 15.3385Q35.0502 15.3134 35.0356 15.299Q35.0224 15.2859 35.0002 15.2859L45.9317 15.2859ZM44.05 4.71033Q44.05 5.05029 43.7444 5.20154Q43.4429 5.35071 43.1717 5.151L41.358 3.82153L42.0358 3.69275Q42.8951 3.52942 43.679 3.3385L44.05 3.24805L44.05 4.71033ZM43.45 4.71033L43.45 3.62988L43.75 3.62988L43.821 3.92139Q43.0222 4.11609 42.1478 4.28223L42.0918 3.98755L42.2692 3.74548L43.5275 4.66785Q43.5044 4.65088 43.4783 4.6637Q43.45 4.67773 43.45 4.71033ZM21.7574 2.44275L26.0601 2.43311L29.7494 2.42346L36.19 2.4292L36.1917 2.4292L40.7411 2.40796L40.79 3.00415Q34.5223 4.01111 25.0005 4.01111Q15.199 4.01111 8.28137 2.71875L8.35562 2.12439Q13.333 2.44275 21.7585 2.44275L21.7856 3.0415L21.7852 3.0415L21.758 2.7428L21.7574 2.44275ZM21.7587 3.04272L21.7309 2.44397L21.7313 2.44397L21.7585 2.7428L21.7585 3.04272Q13.3138 3.04272 8.31732 2.72327L8.33646 2.42383L8.39157 2.12891Q15.2546 3.41113 25.0005 3.41113Q34.4745 3.41113 40.6949 2.41174L40.7425 2.70801L40.7439 3.00793L36.1917 3.0293L36.1895 3.0293L29.751 3.02344L26.0614 3.03308L21.7587 3.04272ZM15.7951 4.53699Q20.3347 4.89551 25 4.89551L27.55 4.87793L27.55 6.97986L15.4715 6.97986L15.4715 4.51135L15.7951 4.53699ZM15.7479 5.13501L15.7715 4.83594L16.0715 4.83594L16.0715 6.67981L15.7715 6.67981L15.7715 6.37988L27.25 6.37988L27.25 6.67981L26.95 6.67981L26.95 5.18005L27.25 5.18005L27.2521 5.47998L25 5.49548Q20.311 5.49548 15.7479 5.13501ZM10.75 30.2354Q9.28195 30.2354 8.24164 29.2058Q7.20001 28.175 7.20001 26.7191Q7.20001 25.2633 8.24164 24.2324Q9.28195 23.203 10.75 23.203Q12.2181 23.203 13.2584 24.2324Q14.3 25.2633 14.3 26.7191Q14.3 28.175 13.2584 29.2058Q12.2181 30.2354 10.75 30.2354ZM10.75 29.6353Q11.9714 29.6353 12.8364 28.7793Q13.7 27.9247 13.7 26.7191Q13.7 23.803 10.75 23.803Q9.52866 23.803 8.66367 24.6589Q7.80002 25.5137 7.80002 26.7191Q7.80002 29.6353 10.75 29.6353ZM37.5 30.2354Q36.032 30.2354 34.9916 29.2058Q33.95 28.175 33.95 26.7191Q33.95 25.2632 34.9916 24.2324Q36.032 23.203 37.5 23.203Q38.9681 23.203 40.0084 24.2324Q41.05 25.2632 41.05 26.7191Q41.05 28.175 40.0084 29.2058Q38.9681 30.2354 37.5 30.2354ZM37.5 29.6353Q38.7214 29.6353 39.5864 28.7793Q40.45 27.9247 40.45 26.7191Q40.45 23.803 37.5 23.803Q36.2787 23.803 35.4137 24.6589Q34.55 25.5137 34.55 26.7191Q34.55 29.6353 37.5 29.6353ZM41.8894 26.0248Q41.2916 22.3186 37.5 22.3186Q33.7117 22.3186 33.1106 26.025L33.0697 26.277L15.18 26.277L15.1393 26.0248Q14.5415 22.3186 10.7499 22.3186Q6.96161 22.3186 6.3605 26.025L6.31964 26.277L1.44992 26.277L1.44992 25.1821L4.74991 25.1821L4.74991 25.4822L4.44992 25.4822L4.44992 23.9978L4.74991 23.9978L4.74991 24.2979L3.44992 24.2979L3.44992 16.7708L11.2849 16.7708L11.2849 17.0707L10.9849 17.0707L10.9849 15.5863L11.2849 15.5863L11.2849 15.8864L3.44992 15.8864L3.44992 12.8669Q3.44992 10.7975 4.93192 9.33057Q6.41299 7.8645 8.50186 7.8645L33.9979 7.8645Q37.3098 7.8645 40.249 9.38232L40.1114 9.94885L34.9999 9.94885Q34.3996 9.94885 33.9741 10.3699Q33.5499 10.7897 33.5499 11.3806L33.5499 15.339Q33.5499 16.7708 34.9999 16.7708L46.7612 16.7708L46.8307 16.9734Q47.55 19.072 47.55 21.2783L47.55 24.2979L43.75 24.2979L43.75 23.9978L44.05 23.9978L44.05 25.4822L43.75 25.4822L43.75 25.1821L48.55 25.1821L48.55 26.277L41.9301 26.277L41.8894 26.0248ZM42.4818 25.9292L42.1856 25.9769L42.1856 25.677L48.25 25.677L48.25 25.9769L47.95 25.9769L47.95 25.4822L48.25 25.4822L48.25 25.7822L43.45 25.7822L43.45 23.6978L47.25 23.6978L47.25 23.9978L46.95 23.9978L46.95 21.2783Q46.95 19.172 46.2631 17.168L46.5469 17.0707L46.5469 17.3707L34.9999 17.3707Q34.1529 17.3707 33.552 16.7761Q32.9499 16.1802 32.9499 15.339L32.9499 11.3806Q32.9499 10.5393 33.552 9.94348Q34.1529 9.34888 34.9999 9.34888L40.1114 9.34888L40.1114 9.6488L39.9737 9.91541Q37.164 8.46448 33.9979 8.46448L8.50186 8.46448Q6.65973 8.46448 5.35403 9.75696Q4.04993 11.0479 4.04993 12.8669L4.04993 15.5863L3.74991 15.5863L3.74991 15.2864L11.5849 15.2864L11.5849 17.3707L3.74991 17.3707L3.74991 17.0707L4.04993 17.0707L4.04993 23.9978L3.74991 23.9978L3.74991 23.6978L5.04993 23.6978L5.04993 25.7822L1.74991 25.7822L1.74991 25.4822L2.04993 25.4822L2.04993 25.9769L1.74991 25.9769L1.74991 25.677L6.06436 25.677L6.06436 25.9769L5.76825 25.929Q6.45105 21.7186 10.7499 21.7186Q15.0525 21.7186 15.7316 25.9292L15.4355 25.9769L15.4355 25.677L32.8145 25.677L32.8145 25.9769L32.5183 25.929Q33.2011 21.7186 37.5 21.7186Q41.8026 21.7186 42.4818 25.9292Z" fill="#222532" fill-opacity="1.000000" fill-rule="nonzero"/>
	<mask id="mask_0_2921" fill="white">
		<path d="M22.75 11.3802L22.75 15.3385C22.75 16.2933 21.9648 17.0703 21 17.0703L16 17.0703C15.0352 17.0703 14.25 16.2933 14.25 15.3385L14.25 11.3802C14.25 10.4254 15.0352 9.64844 16 9.64844L21 9.64844C21.9648 9.64844 22.75 10.4254 22.75 11.3802ZM15.75 11.3802L15.75 15.3385C15.75 15.4739 15.8652 15.5859 16 15.5859L21 15.5859C21.1348 15.5859 21.25 15.4719 21.25 15.3385L21.25 11.3802C21.25 11.2468 21.1348 11.1328 21 11.1328L16 11.1328C15.8652 11.1328 15.75 11.2468 15.75 11.3802Z" clip-rule="evenodd" fill="" fill-opacity="1.000000" fill-rule="evenodd"/>
	</mask>
	<path d="M22.75 11.3802L22.75 15.3385C22.75 16.2933 21.9648 17.0703 21 17.0703L16 17.0703C15.0352 17.0703 14.25 16.2933 14.25 15.3385L14.25 11.3802C14.25 10.4254 15.0352 9.64844 16 9.64844L21 9.64844C21.9648 9.64844 22.75 10.4254 22.75 11.3802ZM15.75 11.3802L15.75 15.3385C15.75 15.4739 15.8652 15.5859 16 15.5859L21 15.5859C21.1348 15.5859 21.25 15.4719 21.25 15.3385L21.25 11.3802C21.25 11.2468 21.1348 11.1328 21 11.1328L16 11.1328C15.8652 11.1328 15.75 11.2468 15.75 11.3802Z" clip-rule="evenodd" fill="#FFFFFF" fill-opacity="1.000000" fill-rule="evenodd" mask="url(#mask_0_2921)"/>
	<path d="M23.05 11.3802L23.05 15.3385Q23.05 15.7517 22.888 16.13Q22.7319 16.4946 22.4478 16.7758Q22.1641 17.0565 21.7965 17.2107Q21.4157 17.3704 21 17.3704L16 17.3704Q15.5843 17.3704 15.2035 17.2107Q14.8359 17.0565 14.5522 16.7758Q14.2681 16.4946 14.112 16.13Q13.95 15.7517 13.95 15.3385L13.95 11.3802Q13.95 10.967 14.112 10.5887Q14.2681 10.2241 14.5522 9.94299Q14.8359 9.66223 15.2035 9.50806Q15.5843 9.34839 16 9.34839L21 9.34839Q21.4157 9.34839 21.7965 9.50806Q22.1641 9.66223 22.4478 9.94299Q22.7319 10.2241 22.888 10.5887Q23.05 10.967 23.05 11.3802ZM22.45 11.3802Q22.45 11.0901 22.3365 10.825Q22.2265 10.5681 22.0258 10.3695Q21.8248 10.1705 21.5645 10.0614Q21.295 9.94849 21 9.94849L16 9.94849Q15.705 9.94849 15.4355 10.0614Q15.1752 10.1705 14.9742 10.3695Q14.7735 10.5681 14.6635 10.825Q14.55 11.0901 14.55 11.3802L14.55 15.3385Q14.55 15.6287 14.6635 15.8938Q14.7735 16.1506 14.9742 16.3492Q15.1752 16.5482 15.4355 16.6573Q15.705 16.7703 16 16.7703L21 16.7703Q21.295 16.7703 21.5645 16.6573Q21.8248 16.5482 22.0258 16.3492Q22.2265 16.1506 22.3365 15.8938Q22.45 15.6287 22.45 15.3385L22.45 11.3802ZM16.05 11.3802L16.05 15.3385Q16.05 15.2859 16 15.2859L21 15.2859Q20.95 15.2859 20.95 15.3385L20.95 11.3802Q20.95 11.4329 21 11.4329L16 11.4329Q16.05 11.4329 16.05 11.3802ZM15.45 11.3802Q15.45 11.155 15.6134 10.9933Q15.7756 10.8328 16 10.8328L21 10.8328Q21.2244 10.8328 21.3866 10.9933Q21.55 11.155 21.55 11.3802L21.55 15.3385Q21.55 15.5637 21.3866 15.7255Q21.2244 15.886 21 15.886L16 15.886Q15.7757 15.886 15.614 15.7268Q15.45 15.5653 15.45 15.3385L15.45 11.3802Z" fill="#222532" fill-opacity="1.000000" fill-rule="nonzero"/>
	<mask id="mask_0_2924" fill="white">
		<path d="M25.5 9.64844L30.5 9.64844C31.4648 9.64844 32.25 10.4254 32.25 11.3802L32.25 15.3385C32.25 16.2933 31.4648 17.0703 30.5 17.0703L25.5 17.0703C24.5352 17.0703 23.75 16.2933 23.75 15.3385L23.75 11.3802C23.75 10.4254 24.5352 9.64844 25.5 9.64844ZM30.5 15.5859C30.6348 15.5859 30.75 15.4719 30.75 15.3385L30.75 11.3802C30.75 11.2468 30.6348 11.1328 30.5 11.1328L25.5 11.1328C25.3652 11.1328 25.25 11.2468 25.25 11.3802L25.25 15.3385C25.25 15.4719 25.3652 15.5859 25.5 15.5859L30.5 15.5859Z" clip-rule="evenodd" fill="" fill-opacity="1.000000" fill-rule="evenodd"/>
	</mask>
	<path d="M25.5 9.64844L30.5 9.64844C31.4648 9.64844 32.25 10.4254 32.25 11.3802L32.25 15.3385C32.25 16.2933 31.4648 17.0703 30.5 17.0703L25.5 17.0703C24.5352 17.0703 23.75 16.2933 23.75 15.3385L23.75 11.3802C23.75 10.4254 24.5352 9.64844 25.5 9.64844ZM30.5 15.5859C30.6348 15.5859 30.75 15.4719 30.75 15.3385L30.75 11.3802C30.75 11.2468 30.6348 11.1328 30.5 11.1328L25.5 11.1328C25.3652 11.1328 25.25 11.2468 25.25 11.3802L25.25 15.3385C25.25 15.4719 25.3652 15.5859 25.5 15.5859L30.5 15.5859Z" clip-rule="evenodd" fill="#FFFFFF" fill-opacity="1.000000" fill-rule="evenodd" mask="url(#mask_0_2924)"/>
	<path d="M25.5 9.34839L30.5 9.34839Q30.9157 9.34839 31.2965 9.50806Q31.6641 9.66223 31.9478 9.94299Q32.2319 10.2241 32.388 10.5887Q32.55 10.967 32.55 11.3802L32.55 15.3385Q32.55 15.7517 32.388 16.13Q32.2319 16.4946 31.9478 16.7758Q31.6641 17.0565 31.2965 17.2107Q30.9157 17.3704 30.5 17.3704L25.5 17.3704Q25.0843 17.3704 24.7035 17.2107Q24.3359 17.0565 24.0522 16.7758Q23.7681 16.4946 23.612 16.13Q23.45 15.7517 23.45 15.3385L23.45 11.3802Q23.45 10.967 23.612 10.5887Q23.7681 10.2241 24.0522 9.94299Q24.3359 9.66223 24.7035 9.50806Q25.0843 9.34839 25.5 9.34839ZM25.5 9.94849Q25.205 9.94849 24.9355 10.0614Q24.6752 10.1705 24.4742 10.3695Q24.2735 10.5681 24.1635 10.825Q24.05 11.0901 24.05 11.3802L24.05 15.3385Q24.05 15.6287 24.1635 15.8938Q24.2735 16.1506 24.4742 16.3492Q24.6752 16.5482 24.9355 16.6573Q25.205 16.7703 25.5 16.7703L30.5 16.7703Q30.795 16.7703 31.0645 16.6573Q31.3248 16.5482 31.5258 16.3492Q31.7265 16.1506 31.8365 15.8938Q31.95 15.6287 31.95 15.3385L31.95 11.3802Q31.95 11.0901 31.8365 10.825Q31.7265 10.5681 31.5258 10.3695Q31.3248 10.1705 31.0645 10.0614Q30.795 9.94849 30.5 9.94849L25.5 9.94849ZM30.5 15.2859Q30.45 15.2859 30.45 15.3385L30.45 11.3802Q30.45 11.4329 30.5 11.4329L25.5 11.4329Q25.55 11.4329 25.55 11.3802L25.55 15.3385Q25.55 15.2859 25.5 15.2859L30.5 15.2859ZM30.5 15.886L25.5 15.886Q25.2756 15.886 25.1134 15.7255Q24.95 15.5637 24.95 15.3385L24.95 11.3802Q24.95 11.155 25.1134 10.9933Q25.2756 10.8328 25.5 10.8328L30.5 10.8328Q30.7244 10.8328 30.8866 10.9933Q31.05 11.155 31.05 11.3802L31.05 15.3385Q31.05 15.5637 30.8866 15.7255Q30.7244 15.886 30.5 15.886Z" fill="#222532" fill-opacity="1.000000" fill-rule="nonzero"/>
	<mask id="mask_0_2927" fill="white">
		<path d="M35.5 26.7188C35.5 25.6268 36.3965 24.7396 37.5 24.7396C38.6035 24.7396 39.5 25.6287 39.5 26.7188C39.5 27.8108 38.6035 28.698 37.5 28.698C36.3965 28.698 35.5 27.8108 35.5 26.7188ZM37 26.7188C37 26.9913 37.2246 27.2136 37.5 27.2136C37.7754 27.2136 38 26.9913 38 26.7188C38 26.4463 37.7754 26.224 37.5 26.224C37.2246 26.224 37 26.4463 37 26.7188Z" clip-rule="evenodd" fill="" fill-opacity="1.000000" fill-rule="evenodd"/>
	</mask>
	<path d="M35.5 26.7188C35.5 25.6268 36.3965 24.7396 37.5 24.7396C38.6035 24.7396 39.5 25.6287 39.5 26.7188C39.5 27.8108 38.6035 28.698 37.5 28.698C36.3965 28.698 35.5 27.8108 35.5 26.7188ZM37 26.7188C37 26.9913 37.2246 27.2136 37.5 27.2136C37.7754 27.2136 38 26.9913 38 26.7188C38 26.4463 37.7754 26.224 37.5 26.224C37.2246 26.224 37 26.4463 37 26.7188Z" clip-rule="evenodd" fill="#FFFFFF" fill-opacity="1.000000" fill-rule="evenodd" mask="url(#mask_0_2927)"/>
	<path d="M35.2 26.7188Q35.2 26.255 35.3815 25.8308Q35.5565 25.4218 35.8752 25.1064Q36.1935 24.7915 36.606 24.6187Q37.0332 24.4396 37.5 24.4396Q37.9668 24.4396 38.3941 24.6189Q38.8065 24.792 39.1249 25.1073Q39.4435 25.4227 39.6185 25.8317Q39.8 26.2557 39.8 26.7188Q39.8 27.1825 39.6185 27.6067Q39.4435 28.0157 39.1248 28.3311Q38.8065 28.6461 38.394 28.819Q37.9668 28.9979 37.5 28.9979Q37.0332 28.9979 36.606 28.819Q36.1935 28.6461 35.8752 28.3311Q35.5565 28.0157 35.3815 27.6067Q35.2 27.1825 35.2 26.7188ZM35.8 26.7188Q35.8 27.0596 35.9331 27.3707Q36.062 27.6719 36.2972 27.9047Q36.5327 28.1377 36.8379 28.2656Q37.1538 28.3979 37.5 28.3979Q37.8462 28.3979 38.1621 28.2656Q38.4673 28.1377 38.7028 27.9047Q38.938 27.6719 39.0669 27.3707Q39.2 27.0596 39.2 26.7188Q39.2 26.3788 39.0669 26.0677Q38.938 25.7666 38.7027 25.5336Q38.4671 25.3003 38.162 25.1722Q37.846 25.0397 37.5 25.0397Q37.1538 25.0397 36.8379 25.172Q36.5327 25.2998 36.2972 25.533Q36.062 25.7657 35.9331 26.0669Q35.8 26.3781 35.8 26.7188ZM37.3 26.7188Q37.3 26.798 37.3578 26.8551Q37.4168 26.9136 37.5 26.9136Q37.5832 26.9136 37.6422 26.8551Q37.7 26.798 37.7 26.7188Q37.7 26.6395 37.6422 26.5824Q37.5832 26.524 37.5 26.524Q37.4168 26.524 37.3578 26.5824Q37.3 26.6395 37.3 26.7188ZM36.7 26.7188Q36.7 26.3892 36.9357 26.156Q37.1701 25.924 37.5 25.924Q37.8299 25.924 38.0643 26.156Q38.3 26.3892 38.3 26.7188Q38.3 27.0483 38.0643 27.2816Q37.8299 27.5135 37.5 27.5135Q37.1701 27.5135 36.9357 27.2816Q36.7 27.0483 36.7 26.7188Z" fill="#222532" fill-opacity="1.000000" fill-rule="nonzero"/>
	<mask id="mask_0_2930" fill="white">
		<path d="M8.75 26.7188C8.75 25.6268 9.64651 24.7396 10.75 24.7396C11.8535 24.7396 12.75 25.6287 12.75 26.7188C12.75 27.8108 11.8535 28.698 10.75 28.698C9.64651 28.698 8.75 27.8088 8.75 26.7188ZM10.25 26.7188C10.25 26.9913 10.4746 27.2136 10.75 27.2136C11.0254 27.2136 11.25 26.9913 11.25 26.7188C11.25 26.4463 11.0254 26.224 10.75 26.224C10.4746 26.224 10.25 26.4463 10.25 26.7188Z" clip-rule="evenodd" fill="" fill-opacity="1.000000" fill-rule="evenodd"/>
	</mask>
	<path d="M8.75 26.7188C8.75 25.6268 9.64651 24.7396 10.75 24.7396C11.8535 24.7396 12.75 25.6287 12.75 26.7188C12.75 27.8108 11.8535 28.698 10.75 28.698C9.64651 28.698 8.75 27.8088 8.75 26.7188ZM10.25 26.7188C10.25 26.9913 10.4746 27.2136 10.75 27.2136C11.0254 27.2136 11.25 26.9913 11.25 26.7188C11.25 26.4463 11.0254 26.224 10.75 26.224C10.4746 26.224 10.25 26.4463 10.25 26.7188Z" clip-rule="evenodd" fill="#FFFFFF" fill-opacity="1.000000" fill-rule="evenodd" mask="url(#mask_0_2930)"/>
	<path d="M8.45001 26.7188Q8.45001 26.255 8.6315 25.8308Q8.80652 25.4218 9.12518 25.1064Q9.44348 24.7915 9.85602 24.6187Q10.2832 24.4396 10.75 24.4396Q11.2168 24.4396 11.6441 24.6189Q12.0565 24.792 12.3749 25.1073Q12.6935 25.4227 12.8685 25.8317Q13.05 26.2557 13.05 26.7188Q13.05 27.1825 12.8685 27.6067Q12.6935 28.0157 12.3748 28.3311Q12.0565 28.6461 11.644 28.819Q11.2168 28.9979 10.75 28.9979Q10.2832 28.9979 9.85587 28.8186Q9.44345 28.6456 9.12509 28.3303Q8.80655 28.0149 8.63153 27.606Q8.45001 27.1819 8.45001 26.7188ZM9.04999 26.7188Q9.04999 27.0588 9.18311 27.3699Q9.31201 27.671 9.54727 27.9039Q9.78293 28.1373 10.088 28.2654Q10.404 28.3979 10.75 28.3979Q11.0962 28.3979 11.4121 28.2656Q11.7173 28.1377 11.9528 27.9047Q12.188 27.6719 12.3169 27.3707Q12.45 27.0596 12.45 26.7188Q12.45 26.3788 12.3169 26.0677Q12.188 25.7666 11.9527 25.5336Q11.7171 25.3003 11.412 25.1722Q11.096 25.0397 10.75 25.0397Q10.4038 25.0397 10.0879 25.172Q9.78275 25.2998 9.54721 25.533Q9.31198 25.7657 9.18314 26.0669Q9.04999 26.3781 9.04999 26.7188ZM10.55 26.7188Q10.55 26.798 10.6078 26.8551Q10.6668 26.9136 10.75 26.9136Q10.8332 26.9136 10.8922 26.8551Q10.95 26.798 10.95 26.7188Q10.95 26.6395 10.8922 26.5824Q10.8332 26.524 10.75 26.524Q10.6668 26.524 10.6078 26.5824Q10.55 26.6395 10.55 26.7188ZM9.95001 26.7188Q9.95001 26.3892 10.1857 26.156Q10.4201 25.924 10.75 25.924Q11.0799 25.924 11.3143 26.156Q11.55 26.3892 11.55 26.7188Q11.55 27.0483 11.3143 27.2816Q11.0799 27.5135 10.75 27.5135Q10.4201 27.5135 10.1857 27.2816Q9.95001 27.0483 9.95001 26.7188Z" fill="#222532" fill-opacity="1.000000" fill-rule="nonzero"/>
	<path d="M16.25 23.99L31.75 23.99L31.75 25.48L16.25 25.48L16.25 23.99Z" fill="#FFFFFF" fill-opacity="1.000000" fill-rule="nonzero"/>
	<path d="M31.75 23.99L31.75 25.48L16.25 25.48L16.25 23.99L31.75 23.99Z" stroke="#222532" stroke-opacity="1.000000" stroke-width="0.600000"/>
</svg>
