<svg width="24.000000" height="52.000000" viewBox="0 0 24 52" fill="none" xmlns="http://www.w3.org/2000/svg" xmlns:xlink="http://www.w3.org/1999/xlink">
	<desc>
			Created with Pixso.
	</desc>
	<defs>
		<filter id="filter_0_2964_dd" x="-0.125000" y="-0.680542" width="24.125000" height="52.125000" filterUnits="userSpaceOnUse" color-interpolation-filters="sRGB">
			<feFlood flood-opacity="0" result="BackgroundImageFix"/>
			<feColorMatrix in="SourceAlpha" type="matrix" values="0 0 0 0 0 0 0 0 0 0 0 0 0 0 0 0 0 0 127 0" result="hardAlpha"/>
			<feOffset dx="0" dy="4"/>
			<feGaussianBlur stdDeviation="1.33333"/>
			<feComposite in2="hardAlpha" operator="out" k2="-1" k3="1"/>
			<feColorMatrix type="matrix" values="0 0 0 0 0 0 0 0 0 0 0 0 0 0 0 0 0 0 0.25 0"/>
			<feBlend mode="normal" in2="BackgroundImageFix" result="effect_dropShadow_1"/>
			<feBlend mode="normal" in="SourceGraphic" in2="effect_dropShadow_1" result="shape"/>
		</filter>
	</defs>
	<g filter="url(#filter_0_2964_dd)">
		<mask id="mask_0_2967" fill="white">
			<path d="M11.6391 -0.555542L11.6386 -0.555542C9.42123 -0.554443 4 6.50281 4 19.5831C4 32.8 8.7431 41.76 8.94446 42.1351L9.14062 42.4998L14.1371 42.4998L14.3333 42.1351C14.5346 41.7601 19.2777 32.8 19.2777 19.5831C19.2777 6.50232 13.8568 -0.554443 11.6391 -0.555542ZM10.9447 1.28821L10.9447 1.28821L10.9448 1.28809L10.9447 1.28821ZM10.9447 1.28821L10.9447 23.0558L12.3336 23.0558L12.3336 1.28821C14.1113 2.875 17.8891 8.64771 17.8891 19.5833C17.8891 23.2325 17.5054 26.5624 16.9585 29.4705C16.1547 28.3263 14.6773 26.769 11.9847 25.2308C5.43808 21.4895 5.51764 16.3522 5.52298 16.1353L5.52124 16.1353C6.20352 7.41858 9.36481 2.69995 10.9447 1.28821ZM5.41196 20.6982C6.40506 22.5437 8.16718 24.6494 11.2953 26.4375C15.7571 28.9879 16.5073 31.5104 16.5211 31.5558C16.1808 33.0419 15.8076 34.3909 15.4343 35.5784C14.8492 34.5419 13.818 33.2676 11.9968 32.1825C6.51236 28.9169 5.64612 24.179 5.52481 23.2242C5.46579 22.4014 5.43106 21.5576 5.41196 20.6982ZM12.3335 41.1113L13.2935 41.1113L13.2934 41.111C13.5694 40.5415 14.1284 39.3228 14.7639 37.5693C14.6284 36.9912 13.9792 34.979 11.2847 33.3749C8.83514 31.9149 7.22403 30.1771 6.15982 28.5486C7.29697 35.2104 9.3595 39.8231 9.9845 41.1113L10.9446 41.1113L10.9446 36.25L12.3335 36.25L12.3335 41.1113Z" clip-rule="evenodd" fill="" fill-opacity="1.000000" fill-rule="evenodd"/>
		</mask>
		<path d="M11.6391 -0.555542L11.6386 -0.555542C9.42123 -0.554443 4 6.50281 4 19.5831C4 32.8 8.7431 41.76 8.94446 42.1351L9.14062 42.4998L14.1371 42.4998L14.3333 42.1351C14.5346 41.7601 19.2777 32.8 19.2777 19.5831C19.2777 6.50232 13.8568 -0.554443 11.6391 -0.555542ZM10.9447 1.28821L10.9447 1.28821L10.9448 1.28809L10.9447 1.28821ZM10.9447 1.28821L10.9447 23.0558L12.3336 23.0558L12.3336 1.28821C14.1113 2.875 17.8891 8.64771 17.8891 19.5833C17.8891 23.2325 17.5054 26.5624 16.9585 29.4705C16.1547 28.3263 14.6773 26.769 11.9847 25.2308C5.43808 21.4895 5.51764 16.3522 5.52298 16.1353L5.52124 16.1353C6.20352 7.41858 9.36481 2.69995 10.9447 1.28821ZM5.41196 20.6982C6.40506 22.5437 8.16718 24.6494 11.2953 26.4375C15.7571 28.9879 16.5073 31.5104 16.5211 31.5558C16.1808 33.0419 15.8076 34.3909 15.4343 35.5784C14.8492 34.5419 13.818 33.2676 11.9968 32.1825C6.51236 28.9169 5.64612 24.179 5.52481 23.2242C5.46579 22.4014 5.43106 21.5576 5.41196 20.6982ZM12.3335 41.1113L13.2935 41.1113L13.2934 41.111C13.5694 40.5415 14.1284 39.3228 14.7639 37.5693C14.6284 36.9912 13.9792 34.979 11.2847 33.3749C8.83514 31.9149 7.22403 30.1771 6.15982 28.5486C7.29697 35.2104 9.3595 39.8231 9.9845 41.1113L10.9446 41.1113L10.9446 36.25L12.3335 36.25L12.3335 41.1113Z" clip-rule="evenodd" fill="#FFFFFF" fill-opacity="1.000000" fill-rule="evenodd" mask="url(#mask_0_2967)"/>
		<path d="M11.6391 -0.430542L11.6386 -0.430542Q11.251 -0.430298 10.7386 -0.119507Q10.1947 0.210327 9.60037 0.838135Q8.96704 1.50708 8.3515 2.43701Q7.68842 3.43884 7.10046 4.66321Q5.7627 7.44897 5.00388 10.9448Q4.125 14.9938 4.125 19.5831Q4.125 24.1249 4.86758 28.6096Q5.46539 32.22 6.5162 35.6381Q7.27734 38.1139 8.20175 40.2623Q8.6893 41.3954 9.0546 42.076L9.2507 42.4404L9.14062 42.4998L9.14062 42.3748L14.1371 42.3748L14.1371 42.4998L14.027 42.4404L14.2232 42.0759Q14.5878 41.3969 15.076 40.2625Q16.0004 38.1139 16.7615 35.6381Q17.8123 32.22 18.4101 28.6096Q19.1527 24.1249 19.1527 19.5831Q19.1526 14.9937 18.2739 10.9447Q17.5151 7.44873 16.1773 4.66309Q15.5894 3.4386 14.9263 2.43689Q14.3108 1.50696 13.6775 0.838013Q13.0831 0.210327 12.5392 -0.119507Q12.0267 -0.430298 11.639 -0.430542L11.6391 -0.430542ZM11.6392 -0.680542Q12.0966 -0.680298 12.6689 -0.333252Q13.2415 0.0140381 13.859 0.666138Q14.5073 1.35083 15.1348 2.29895Q15.8073 3.31494 16.4027 4.55481Q17.7531 7.36694 18.5182 10.8916Q19.4027 14.9668 19.4027 19.5831Q19.4027 24.1453 18.6568 28.6504Q18.0562 32.2773 17.0005 35.7115Q16.2354 38.2003 15.3056 40.3612Q14.8132 41.5056 14.4433 42.1943L14.2118 42.6248L9.06595 42.6248L8.83432 42.1942Q8.46393 41.5042 7.97211 40.3612Q7.04236 38.2002 6.27725 35.7115Q5.2215 32.2773 4.62094 28.6504Q3.875 24.1455 3.875 19.5831Q3.875 14.9669 4.75955 10.8918Q5.5246 7.36719 6.87509 4.55493Q7.47049 3.31519 8.14304 2.29907Q8.77054 1.35095 9.41885 0.66626Q10.0363 0.0140381 10.6089 -0.333252Q11.1811 -0.680298 11.6386 -0.680542L11.6391 -0.680542L11.6392 -0.680542ZM10.8197 1.28821L10.8197 1.19873L10.9045 1.1698L11.0281 1.38135L10.8197 1.5675L10.8197 1.28821ZM11.0697 1.28821L10.9447 1.28821L10.8614 1.19507L10.8615 1.19495L10.9448 1.28809L10.9851 1.40649L10.9849 1.40649L10.9447 1.28821L11.0697 1.28821L11.0697 1.28821ZM11.0697 1.28821L11.0697 23.0558L10.9447 23.0558L10.9447 22.9308L12.3336 22.9308L12.3336 23.0558L12.2086 23.0558L12.2086 1.00903L12.4168 1.19495Q13.2143 1.90674 14.0566 3.21057Q15.0901 4.81042 15.8945 6.88477Q16.8614 9.37793 17.394 12.312Q18.0141 15.7275 18.0141 19.5833Q18.0142 24.5339 17.0814 29.4935L17.0266 29.7848L16.8563 29.5422Q16.1521 28.54 15.0964 27.5914Q13.7551 26.3861 11.9228 25.3394Q9.6507 24.0409 8.11972 22.3456Q6.8848 20.978 6.1828 19.4125Q5.67349 18.2767 5.48642 17.1421Q5.38788 16.5446 5.39801 16.1322L5.52298 16.1353L5.52298 16.2603L5.38608 16.2603L5.39664 16.1255Q5.63794 13.0427 6.31296 10.3066Q6.89725 7.93835 7.78189 5.92224Q8.52722 4.22339 9.42337 2.90747Q10.1671 1.81543 10.8614 1.19507L11.0697 1.00891L11.0697 1.28821ZM10.8197 1.28821L10.9447 1.28821L11.028 1.38147Q10.3565 1.98145 9.63 3.04822Q8.74689 4.34509 8.01083 6.02258Q7.13483 8.01917 6.55569 10.3666Q5.88556 13.0828 5.64587 16.145L5.52124 16.1353L5.52124 16.0103L5.65109 16.0103L5.64795 16.1383Q5.63837 16.5271 5.73309 17.1014Q5.91489 18.204 6.41092 19.3102Q7.0968 20.8397 8.30524 22.178Q9.80945 23.8438 12.0468 25.1223Q13.9023 26.1824 15.2635 27.4054Q16.3403 28.373 17.0608 29.3986L16.9585 29.4705L16.8357 29.4473Q17.7641 24.5107 17.7641 19.5833Q17.7641 15.75 17.1481 12.3567Q16.6196 9.44604 15.6615 6.9751Q14.8663 4.92456 13.8466 3.34619Q13.4206 2.68677 12.9863 2.16101Q12.601 1.69446 12.2503 1.38147L12.3336 1.28821L12.4586 1.28821L12.4586 23.1808L10.8197 23.1808L10.8197 1.28821ZM5.52203 20.639Q6.34796 22.1738 7.64252 23.5022Q9.19025 25.0903 11.3574 26.329Q12.8973 27.2092 14.0656 28.2051Q15.0061 29.0068 15.6663 29.8484Q16.1439 30.4572 16.4331 31.0298Q16.5815 31.3237 16.6406 31.5189L16.6407 31.5194L16.6504 31.5513L16.6429 31.5836Q16.1655 33.6689 15.5536 35.6158L15.4671 35.8907L15.3255 35.6398Q14.8267 34.7562 14.0888 33.9851Q13.1747 33.0298 11.9328 32.2899Q10.0143 31.1476 8.59735 29.6245Q7.42801 28.3676 6.63947 26.8958Q6.03833 25.7738 5.69601 24.6025Q5.48007 23.8638 5.40079 23.24L5.40036 23.2367L5.40012 23.2333Q5.31772 22.0846 5.28699 20.701L5.52203 20.639ZM5.30188 20.7576L5.41196 20.6982L5.53693 20.6956Q5.56754 22.0729 5.64948 23.2153L5.52481 23.2242L5.6488 23.2085Q5.72559 23.8126 5.93597 24.5325Q6.271 25.6787 6.8598 26.7777Q7.63309 28.2209 8.7804 29.4542Q10.173 30.9512 12.0608 32.0751Q13.3318 32.8324 14.2694 33.8123Q15.029 34.606 15.5432 35.5168L15.4343 35.5784L15.3151 35.5409Q15.924 33.6035 16.3993 31.5278L16.5211 31.5558L16.4015 31.592L16.4013 31.5914Q16.3485 31.417 16.2099 31.1425Q15.9319 30.5919 15.4696 30.0027Q14.8249 29.1808 13.9034 28.3954Q12.753 27.4147 11.2333 26.546Q9.03571 25.2899 7.46347 23.6766Q6.14444 22.3232 5.30188 20.7576ZM12.3335 40.9863L13.2935 40.9863L13.2935 41.1113L13.1852 41.1736L13.1521 41.116L13.1809 41.0565Q13.9191 39.5337 14.6463 37.5267L14.7639 37.5693L14.6422 37.5978Q14.5703 37.291 14.4265 36.9434Q14.2127 36.4265 13.8799 35.926Q12.9319 34.501 11.2208 33.4823Q7.96759 31.5435 6.05518 28.6171L6.15982 28.5486L6.28305 28.5276Q7.01477 32.8143 8.38248 36.8046Q8.86661 38.217 9.39853 39.4937Q9.76282 40.368 10.097 41.0568L9.9845 41.1113L9.9845 40.9863L10.9446 40.9863L10.9446 41.1113L10.8196 41.1113L10.8196 36.125L12.4585 36.125L12.4585 41.1113L12.3335 41.1113L12.3335 40.9863ZM12.2085 41.2363L12.2085 36.25L12.3335 36.25L12.3335 36.375L10.9446 36.375L10.9446 36.25L11.0696 36.25L11.0696 41.2363L9.90619 41.2363L9.87204 41.1659Q9.53479 40.4707 9.16776 39.5898Q8.63275 38.3057 8.14597 36.8856Q6.77173 32.8762 6.03659 28.5697L6.26447 28.4802Q8.14523 31.3582 11.3487 33.2675Q13.1086 34.3152 14.088 35.7876Q14.4344 36.3083 14.6575 36.8478Q14.8091 37.2142 14.8856 37.5408L14.894 37.5769L14.8814 37.6119Q14.1497 39.631 13.4059 41.1655L13.2934 41.111L13.4018 41.0487L13.5095 41.2363L12.3335 41.2363L12.2085 41.2363Z" fill="#000000" fill-opacity="1.000000" fill-rule="nonzero"/>
	</g>
</svg>
