<svg width="60.000000" height="47.000000" viewBox="0 0 60 47" fill="none" xmlns="http://www.w3.org/2000/svg" xmlns:xlink="http://www.w3.org/1999/xlink">
	<desc>
			Created with Pixso.
	</desc>
	<defs/>
	<mask id="mask_0_2953" fill="white">
		<path d="M58.5623 42.9442C58.5764 42.9181 58.5882 42.8896 58.5976 42.8612C58.6093 42.8326 58.6164 42.8019 58.6258 42.771C58.6329 42.7424 58.6399 42.714 58.6446 42.6855C58.6517 42.6523 58.654 42.6167 58.6564 42.5835C58.6587 42.5645 58.6611 42.5479 58.6611 42.5289C58.6611 42.5194 58.6587 42.5099 58.6587 42.5004C58.6587 42.4672 58.654 42.434 58.6493 42.4008L58.6352 42.3082C58.6329 42.2987 58.6329 42.2869 58.6305 42.2773C58.5647 42.0328 56.8667 36.4438 42.9871 35.6228C48.2949 13.6349 38.1848 1.26038 37.7239 0.714722C37.5452 0.501099 37.2841 0.380127 37.0067 0.380127L36.8679 0.375366C36.7997 0.375366 36.7339 0.382446 36.6703 0.396729C36.6539 0.401489 36.6374 0.408569 36.621 0.411011C36.5739 0.422852 36.5293 0.437012 36.4846 0.456055C36.4634 0.465576 36.4446 0.477417 36.4258 0.489258C36.3882 0.51062 36.3529 0.529663 36.3176 0.553345C36.2964 0.567627 36.2776 0.584229 36.2588 0.603149C36.2282 0.629272 36.2 0.655396 36.1718 0.686279C36.1647 0.695801 36.1553 0.700562 36.1459 0.709961C35.685 1.25818 25.5253 13.6964 30.9298 35.7913C25.9442 36.2991 23.4181 37.443 21.6873 38.5988C21.6402 38.0957 21.5109 37.6898 21.2475 37.3766C20.9841 37.0609 20.6102 36.8806 20.1963 36.8663C17.6329 36.7856 15.1565 40.1058 13.7454 42.3912C13.3856 40.6588 13.2021 38.4873 13.9947 37.2627C14.3874 36.6575 15.0153 36.3324 15.916 36.2731C18.3336 36.114 19.2179 35.16 19.5353 34.3887C19.8998 33.5011 19.6694 32.4877 18.9003 31.6073C17.7903 30.3328 15.5209 29.3645 12.9458 30.067C9.48874 31.0092 6.41727 35.2739 5.44617 38.8528C4.69595 41.6152 5.09341 43.979 6.56796 45.5049C6.93246 45.8822 7.52509 45.8893 7.89899 45.5238C8.27057 45.1583 8.27997 44.558 7.91782 44.1807C6.582 42.797 6.93481 40.5614 7.26172 39.3534C8.19534 35.917 10.9656 32.5731 13.4374 31.8988C15.22 31.4099 16.7863 32.0554 17.4871 32.8599C17.7505 33.1614 17.8705 33.4769 17.7952 33.6621C17.6823 33.9397 17.0897 34.291 15.7939 34.3765C14.3029 34.4738 13.1364 35.1121 12.4168 36.2229C10.4955 39.1941 12.3439 44.5646 12.5603 45.1678C12.6873 45.5238 13.0142 45.7683 13.3881 45.7896C13.4069 45.792 13.4257 45.792 13.4445 45.792C13.7973 45.792 14.1242 45.5927 14.2841 45.2699C15.5775 42.6854 18.0704 39.1323 19.8271 38.786C19.8757 39.3326 19.7284 40.4562 19.6318 41.1929L19.6272 41.2281C19.3567 43.2644 19.225 44.5507 19.8812 45.3053C20.1516 45.6187 20.5349 45.7919 20.9559 45.7919C22.2846 45.7919 22.9455 44.8994 23.4252 44.2493C23.8791 43.6345 24.0508 43.4684 24.3871 43.4684C24.7258 43.4684 24.8975 43.6345 25.349 44.2468C25.8311 44.8971 26.4896 45.7894 27.8183 45.7894C29.1471 45.7894 29.8079 44.8971 30.2877 44.2468C30.7415 43.6321 30.9132 43.4659 31.2495 43.4659C31.5882 43.4659 31.7599 43.6321 32.2114 44.2444C32.6935 44.8947 33.352 45.787 34.6808 45.787C36.0118 45.787 36.6703 44.8947 37.1501 44.2444C37.604 43.6321 37.7733 43.4659 38.112 43.4659C38.4506 43.4659 38.6223 43.6321 39.0739 44.2444C39.5559 44.8947 40.2144 45.787 41.5455 45.787C42.8742 45.787 43.5351 44.8947 44.0149 44.2444C44.4688 43.6296 44.6404 43.4635 44.9767 43.4635C45.3154 43.4635 45.4871 43.6296 45.9386 44.2419C46.4207 44.8922 47.0792 45.7845 48.408 45.7845C49.739 45.7845 50.3975 44.8922 50.8796 44.2419C51.3335 43.6296 51.5029 43.4635 51.8415 43.4635C52.1802 43.4635 52.3518 43.6296 52.8034 44.2444C53.2855 44.8947 53.944 45.787 55.2727 45.787C56.8225 45.787 57.2058 44.553 57.3893 43.9596C57.4386 43.8005 57.5209 43.5325 57.5656 43.4802C57.5656 43.4802 57.6033 43.4636 57.7091 43.4636C57.7867 43.4636 57.8619 43.4517 57.9348 43.4327C57.9443 43.4304 57.9513 43.4327 57.9607 43.4304C57.9819 43.4257 57.9984 43.4161 58.0172 43.4091C58.0477 43.3971 58.0783 43.3877 58.1065 43.3734C58.1371 43.3591 58.163 43.3425 58.1912 43.3284C58.2147 43.3141 58.2406 43.2975 58.2617 43.2832C58.2876 43.2643 58.3135 43.2429 58.337 43.2191C58.3582 43.2002 58.377 43.1812 58.3958 43.1622C58.417 43.1384 58.4381 43.1123 58.4569 43.0886C58.4734 43.0649 58.4899 43.0436 58.5063 43.0175C58.5345 42.9984 58.5486 42.9723 58.5628 42.9438L58.5623 42.9442ZM37.8081 38.5466L40.2398 38.5466C45.5949 20.8735 40.5573 8.95959 37.8081 4.22961L37.8081 38.5466ZM35.9267 4.47876L35.9267 38.5466L33.6338 38.5466C28.3824 21.2174 33.1564 9.37927 35.9267 4.47876ZM55.4274 43.8839C55.4721 43.8318 55.5544 43.5636 55.6038 43.4045L55.6031 43.4047C55.7136 43.0486 55.9017 42.4648 56.365 42.0542C55.3235 40.7252 52.0381 37.996 42.5018 37.5C42.2949 38.2523 42.0714 39.0142 41.8269 39.7878C41.7022 40.1818 41.3401 40.45 40.9308 40.45L32.9399 40.45C32.5307 40.45 32.1686 40.1818 32.0439 39.7878C31.8181 39.0663 31.6112 38.3567 31.416 37.6566C25.3696 38.231 23.2061 39.7617 21.5528 41.0527C21.534 41.1951 21.5175 41.3351 21.4963 41.4871C21.4046 42.1799 21.2635 43.2479 21.2917 43.8175C21.4634 43.7155 21.6375 43.5066 21.9197 43.1222C22.4018 42.4719 23.0603 41.5796 24.3914 41.5796C25.7201 41.5796 26.3786 42.4719 26.8607 43.1222C27.3122 43.7345 27.4839 43.9006 27.8226 43.9006C28.1612 43.9006 28.3306 43.7345 28.7844 43.1222C29.2665 42.4719 29.925 41.5796 31.2561 41.5796C32.5849 41.5796 33.2433 42.4719 33.7254 43.1222C34.1794 43.7345 34.351 43.9006 34.6873 43.9006C35.026 43.9006 35.1953 43.7345 35.6492 43.1222C36.129 42.4719 36.7875 41.5796 38.1185 41.5796C39.4473 41.5796 40.1058 42.4719 40.5879 43.1222C41.0418 43.7368 41.2134 43.903 41.5521 43.903C41.8907 43.903 42.0601 43.7369 42.514 43.1246C42.9961 42.4744 43.6546 41.582 44.9857 41.582C46.3144 41.582 46.9729 42.4744 47.455 43.1246C47.9066 43.7368 48.0782 43.903 48.4169 43.903C48.7555 43.903 48.9272 43.7368 49.3811 43.1222C49.8609 42.4719 50.5217 41.5796 51.8504 41.5796C53.1815 41.5796 53.84 42.4719 54.3221 43.1222C54.776 43.7345 54.9477 43.9006 55.284 43.9006C55.3898 43.9006 55.4274 43.8839 55.4274 43.8839Z" clip-rule="evenodd" fill="" fill-opacity="1.000000" fill-rule="evenodd"/>
	</mask>
	<path d="M58.5623 42.9442C58.5764 42.9181 58.5882 42.8896 58.5976 42.8612C58.6093 42.8326 58.6164 42.8019 58.6258 42.771C58.6329 42.7424 58.6399 42.714 58.6446 42.6855C58.6517 42.6523 58.654 42.6167 58.6564 42.5835C58.6587 42.5645 58.6611 42.5479 58.6611 42.5289C58.6611 42.5194 58.6587 42.5099 58.6587 42.5004C58.6587 42.4672 58.654 42.434 58.6493 42.4008L58.6352 42.3082C58.6329 42.2987 58.6329 42.2869 58.6305 42.2773C58.5647 42.0328 56.8667 36.4438 42.9871 35.6228C48.2949 13.6349 38.1848 1.26038 37.7239 0.714722C37.5452 0.501099 37.2841 0.380127 37.0067 0.380127L36.8679 0.375366C36.7997 0.375366 36.7339 0.382446 36.6703 0.396729C36.6539 0.401489 36.6374 0.408569 36.621 0.411011C36.5739 0.422852 36.5293 0.437012 36.4846 0.456055C36.4634 0.465576 36.4446 0.477417 36.4258 0.489258C36.3882 0.51062 36.3529 0.529663 36.3176 0.553345C36.2964 0.567627 36.2776 0.584229 36.2588 0.603149C36.2282 0.629272 36.2 0.655396 36.1718 0.686279C36.1647 0.695801 36.1553 0.700562 36.1459 0.709961C35.685 1.25818 25.5253 13.6964 30.9298 35.7913C25.9442 36.2991 23.4181 37.443 21.6873 38.5988C21.6402 38.0957 21.5109 37.6898 21.2475 37.3766C20.9841 37.0609 20.6102 36.8806 20.1963 36.8663C17.6329 36.7856 15.1565 40.1058 13.7454 42.3912C13.3856 40.6588 13.2021 38.4873 13.9947 37.2627C14.3874 36.6575 15.0153 36.3324 15.916 36.2731C18.3336 36.114 19.2179 35.16 19.5353 34.3887C19.8998 33.5011 19.6694 32.4877 18.9003 31.6073C17.7903 30.3328 15.5209 29.3645 12.9458 30.067C9.48874 31.0092 6.41727 35.2739 5.44617 38.8528C4.69595 41.6152 5.09341 43.979 6.56796 45.5049C6.93246 45.8822 7.52509 45.8893 7.89899 45.5238C8.27057 45.1583 8.27997 44.558 7.91782 44.1807C6.582 42.797 6.93481 40.5614 7.26172 39.3534C8.19534 35.917 10.9656 32.5731 13.4374 31.8988C15.22 31.4099 16.7863 32.0554 17.4871 32.8599C17.7505 33.1614 17.8705 33.4769 17.7952 33.6621C17.6823 33.9397 17.0897 34.291 15.7939 34.3765C14.3029 34.4738 13.1364 35.1121 12.4168 36.2229C10.4955 39.1941 12.3439 44.5646 12.5603 45.1678C12.6873 45.5238 13.0142 45.7683 13.3881 45.7896C13.4069 45.792 13.4257 45.792 13.4445 45.792C13.7973 45.792 14.1242 45.5927 14.2841 45.2699C15.5775 42.6854 18.0704 39.1323 19.8271 38.786C19.8757 39.3326 19.7284 40.4562 19.6318 41.1929L19.6272 41.2281C19.3567 43.2644 19.225 44.5507 19.8812 45.3053C20.1516 45.6187 20.5349 45.7919 20.9559 45.7919C22.2846 45.7919 22.9455 44.8994 23.4252 44.2493C23.8791 43.6345 24.0508 43.4684 24.3871 43.4684C24.7258 43.4684 24.8975 43.6345 25.349 44.2468C25.8311 44.8971 26.4896 45.7894 27.8183 45.7894C29.1471 45.7894 29.8079 44.8971 30.2877 44.2468C30.7415 43.6321 30.9132 43.4659 31.2495 43.4659C31.5882 43.4659 31.7599 43.6321 32.2114 44.2444C32.6935 44.8947 33.352 45.787 34.6808 45.787C36.0118 45.787 36.6703 44.8947 37.1501 44.2444C37.604 43.6321 37.7733 43.4659 38.112 43.4659C38.4506 43.4659 38.6223 43.6321 39.0739 44.2444C39.5559 44.8947 40.2144 45.787 41.5455 45.787C42.8742 45.787 43.5351 44.8947 44.0149 44.2444C44.4688 43.6296 44.6404 43.4635 44.9767 43.4635C45.3154 43.4635 45.4871 43.6296 45.9386 44.2419C46.4207 44.8922 47.0792 45.7845 48.408 45.7845C49.739 45.7845 50.3975 44.8922 50.8796 44.2419C51.3335 43.6296 51.5029 43.4635 51.8415 43.4635C52.1802 43.4635 52.3518 43.6296 52.8034 44.2444C53.2855 44.8947 53.944 45.787 55.2727 45.787C56.8225 45.787 57.2058 44.553 57.3893 43.9596C57.4386 43.8005 57.5209 43.5325 57.5656 43.4802C57.5656 43.4802 57.6033 43.4636 57.7091 43.4636C57.7867 43.4636 57.8619 43.4517 57.9348 43.4327C57.9443 43.4304 57.9513 43.4327 57.9607 43.4304C57.9819 43.4257 57.9984 43.4161 58.0172 43.4091C58.0477 43.3971 58.0783 43.3877 58.1065 43.3734C58.1371 43.3591 58.163 43.3425 58.1912 43.3284C58.2147 43.3141 58.2406 43.2975 58.2617 43.2832C58.2876 43.2643 58.3135 43.2429 58.337 43.2191C58.3582 43.2002 58.377 43.1812 58.3958 43.1622C58.417 43.1384 58.4381 43.1123 58.4569 43.0886C58.4734 43.0649 58.4899 43.0436 58.5063 43.0175C58.5345 42.9984 58.5486 42.9723 58.5628 42.9438L58.5623 42.9442ZM37.8081 38.5466L40.2398 38.5466C45.5949 20.8735 40.5573 8.95959 37.8081 4.22961L37.8081 38.5466ZM35.9267 4.47876L35.9267 38.5466L33.6338 38.5466C28.3824 21.2174 33.1564 9.37927 35.9267 4.47876ZM55.4274 43.8839C55.4721 43.8318 55.5544 43.5636 55.6038 43.4045L55.6031 43.4047C55.7136 43.0486 55.9017 42.4648 56.365 42.0542C55.3235 40.7252 52.0381 37.996 42.5018 37.5C42.2949 38.2523 42.0714 39.0142 41.8269 39.7878C41.7022 40.1818 41.3401 40.45 40.9308 40.45L32.9399 40.45C32.5307 40.45 32.1686 40.1818 32.0439 39.7878C31.8181 39.0663 31.6112 38.3567 31.416 37.6566C25.3696 38.231 23.2061 39.7617 21.5528 41.0527C21.534 41.1951 21.5175 41.3351 21.4963 41.4871C21.4046 42.1799 21.2635 43.2479 21.2917 43.8175C21.4634 43.7155 21.6375 43.5066 21.9197 43.1222C22.4018 42.4719 23.0603 41.5796 24.3914 41.5796C25.7201 41.5796 26.3786 42.4719 26.8607 43.1222C27.3122 43.7345 27.4839 43.9006 27.8226 43.9006C28.1612 43.9006 28.3306 43.7345 28.7844 43.1222C29.2665 42.4719 29.925 41.5796 31.2561 41.5796C32.5849 41.5796 33.2433 42.4719 33.7254 43.1222C34.1794 43.7345 34.351 43.9006 34.6873 43.9006C35.026 43.9006 35.1953 43.7345 35.6492 43.1222C36.129 42.4719 36.7875 41.5796 38.1185 41.5796C39.4473 41.5796 40.1058 42.4719 40.5879 43.1222C41.0418 43.7368 41.2134 43.903 41.5521 43.903C41.8907 43.903 42.0601 43.7369 42.514 43.1246C42.9961 42.4744 43.6546 41.582 44.9857 41.582C46.3144 41.582 46.9729 42.4744 47.455 43.1246C47.9066 43.7368 48.0782 43.903 48.4169 43.903C48.7555 43.903 48.9272 43.7368 49.3811 43.1222C49.8609 42.4719 50.5217 41.5796 51.8504 41.5796C53.1815 41.5796 53.84 42.4719 54.3221 43.1222C54.776 43.7345 54.9477 43.9006 55.284 43.9006C55.3898 43.9006 55.4274 43.8839 55.4274 43.8839Z" clip-rule="evenodd" fill="#FFFFFF" fill-opacity="1.000000" fill-rule="evenodd" mask="url(#mask_0_2953)"/>
	<path d="M58.1224 42.7065L58.1228 42.7043L58.1285 42.6871L58.1354 42.6704L58.1364 42.6635Q58.1431 42.6396 58.1476 42.6251L58.6258 42.771L58.1405 42.6508Q58.1498 42.613 58.1513 42.604L58.1532 42.5928L58.1555 42.5817L58.1574 42.5516L58.1576 42.5481L58.1586 42.535L58.1602 42.5221Q58.1605 42.5192 58.161 42.5156L58.1611 42.5289Q58.1611 42.5549 58.1637 42.576Q58.1587 42.536 58.1587 42.5004L58.1543 42.4708L58.1409 42.3835L58.6352 42.3082L58.1498 42.4283Q58.1407 42.3912 58.1359 42.3475Q58.1383 42.37 58.1452 42.3975Q57.7802 41.043 55.7006 39.5747Q51.5282 36.6289 42.9576 36.1219L42.3607 36.0867L42.501 35.5055Q45.8004 21.8379 42.0433 10.2825Q40.0981 4.29968 37.342 1.03748Q37.2103 0.880127 37.0067 0.880127L36.9981 0.880127L36.8508 0.875122L36.8679 0.375366L36.8679 0.875366Q36.821 0.875366 36.7798 0.884644L36.6703 0.396729L36.8089 0.877197L36.8133 0.875854Q36.7483 0.897827 36.6923 0.905884L36.621 0.411011L36.7433 0.895752Q36.7063 0.905151 36.6801 0.91626L36.6925 0.912231L36.6827 0.918335L36.6726 0.924072Q36.6649 0.928467 36.6508 0.936401Q36.609 0.959961 36.5967 0.968262Q36.6096 0.959473 36.614 0.9552L36.5993 0.969971L36.5835 0.983398Q36.5565 1.00647 36.5407 1.02368L36.1718 0.686279L36.5731 0.984497Q36.5303 1.04211 36.4695 1.09058Q36.4846 1.07861 36.5011 1.06189L36.1459 0.709961L36.5286 1.03174Q33.7526 4.3335 31.8141 10.3246Q28.0561 21.9386 31.4155 35.6725L31.5519 36.2305L30.9804 36.2887Q25.1593 36.8816 21.9649 39.0146L21.2675 39.4803L21.1894 38.6454Q21.1304 38.0143 20.8648 37.6984Q20.5995 37.3805 20.1791 37.3661Q17.488 37.2814 14.1708 42.6539L13.5112 43.7224L13.2558 42.4929Q12.4683 38.7009 13.5749 36.9911Q14.2968 35.8787 15.8831 35.7742Q18.4951 35.6023 19.0729 34.1984Q19.5292 33.0874 18.5237 31.9362Q16.5022 29.6151 13.0774 30.5493Q10.7629 31.1802 8.65228 33.7859Q6.67764 36.2236 5.92871 38.9838Q4.83905 42.9962 6.92749 45.1575Q7.05609 45.2905 7.23672 45.293Q7.41739 45.2954 7.5495 45.1663Q7.86911 44.8519 7.55707 44.5269Q5.82828 42.7362 6.77908 39.2228Q8.54727 32.7147 13.3058 31.4164Q16.201 30.6223 17.8641 32.5315Q18.4991 33.2582 18.2584 33.8503Q17.8972 34.7389 15.8268 34.8754Q13.7999 35.0077 12.8365 36.4948Q10.9997 39.3351 13.0309 44.999Q13.129 45.274 13.4166 45.2904L13.4337 45.2914L13.4507 45.2936L13.4445 45.292Q13.7151 45.292 13.836 45.0479Q16.9401 38.8455 19.7303 38.2955L20.2758 38.188L20.3251 38.7418Q20.3786 39.3431 20.1275 41.2578L20.1229 41.2931Q19.7164 44.3538 20.2585 44.9773Q20.5301 45.2919 20.9559 45.2919Q22.0346 45.2919 23.0229 43.9524Q23.7495 42.9684 24.3871 42.9684Q25.0274 42.9684 25.7514 43.95L25.7541 43.9536Q26.7444 45.2894 27.8183 45.2894Q28.897 45.2894 29.8853 43.95Q30.6119 42.9659 31.2495 42.9659Q31.8899 42.9659 32.6138 43.9476L32.6165 43.9512Q33.6068 45.287 34.6808 45.287Q35.7595 45.287 36.7477 43.9475Q37.4753 42.9659 38.112 42.9659Q38.7523 42.9659 39.4763 43.9476L39.4789 43.9512Q40.4693 45.287 41.5455 45.287Q42.6242 45.287 43.6125 43.9475Q44.3391 42.9635 44.9767 42.9635Q45.6171 42.9635 46.341 43.9452L46.3437 43.9487Q47.334 45.2845 48.408 45.2845Q49.4842 45.2845 50.4746 43.9486L50.478 43.9441Q51.2049 42.9635 51.8415 42.9635Q52.4829 42.9635 53.2064 43.9484L53.2084 43.9512Q54.1988 45.287 55.2727 45.287Q56.4555 45.287 56.9116 43.8119Q56.9119 43.8108 56.9165 43.796Q57.0754 43.2841 57.1858 43.155L57.2597 43.0687L57.3637 43.0228Q57.4978 42.9636 57.7091 42.9636Q57.7523 42.9636 57.8088 42.9489Q57.8775 42.9315 57.9478 42.9315Q57.8939 42.9315 57.8384 42.9456L57.8448 42.944L57.8513 42.9425Q57.8182 42.95 57.798 42.9587Q57.8218 42.9484 57.8402 42.9414Q57.8501 42.9375 57.873 42.9292L57.8813 42.927L57.8882 42.9235L57.8954 42.9202Q57.8961 42.9198 57.9117 42.9111Q57.9443 42.8928 57.9659 42.882L58.1912 43.3284L57.9322 42.9006Q57.9573 42.8854 57.9827 42.8684L58.2617 43.2832L57.9659 42.8801Q57.9773 42.8717 57.9818 42.8672L57.9922 42.8567L58.0031 42.8469Q58.0134 42.8378 58.0406 42.8102L58.3958 43.1622L58.0226 42.8293Q58.0383 42.8118 58.0651 42.778L58.4569 43.0886L58.0461 42.8036Q58.0539 42.7924 58.0672 42.7739Q58.0804 42.7555 58.0834 42.7507L58.1396 42.6615L58.2272 42.6025Q58.1472 42.6564 58.1147 42.7218L58.5628 42.9438L58.8806 43.3298L58.8802 43.3302L58.1224 42.7065ZM59.0022 43.182L58.5623 42.9442L58.2444 42.5582L58.2449 42.5579L59.0108 43.1659Q58.9254 43.338 58.7854 43.4323L58.5063 43.0175L58.9293 43.2841Q58.9103 43.3142 58.8796 43.3569Q58.871 43.369 58.8678 43.3735L58.8587 43.3867L58.8488 43.3993Q58.804 43.4557 58.769 43.495L58.7602 43.5048L58.7509 43.5142Q58.703 43.5625 58.6709 43.5913L58.337 43.2191L58.6921 43.571Q58.6324 43.6315 58.5576 43.6863L58.5493 43.6924L58.5408 43.6981Q58.4957 43.7285 58.4502 43.756L58.4337 43.766L58.4165 43.7747Q58.4141 43.7759 58.4003 43.7836Q58.3522 43.8105 58.3177 43.8267L58.1065 43.3734L58.3318 43.8198Q58.2857 43.843 58.2159 43.8685Q58.2023 43.8735 58.1941 43.8767L58.1998 43.8745Q58.1314 43.9045 58.0701 43.9182L57.9607 43.4304L58.083 43.9152Q58.0181 43.9315 57.9478 43.9315Q58.0016 43.9315 58.0609 43.9166Q57.8804 43.9636 57.7091 43.9636L57.7676 43.9376L57.5656 43.4802L57.9455 43.8053L57.9544 43.8357Q57.926 43.9171 57.8716 44.0924Q57.869 44.1007 57.8669 44.1073Q57.1931 46.287 55.2727 46.287Q53.6953 46.287 52.4052 44.5468L52.4004 44.5404Q51.9767 43.9635 51.8415 43.9635Q51.7084 43.9635 51.2813 44.5397L51.2779 44.5442Q49.9876 46.2845 48.408 46.2845Q46.8306 46.2845 45.5403 44.5443L45.5362 44.5387Q45.112 43.9635 44.9767 43.9635Q44.8438 43.9635 44.4172 44.5413Q43.1292 46.287 41.5455 46.287Q39.9658 46.287 38.6756 44.5468L38.6714 44.5411Q38.2473 43.9659 38.112 43.9659Q37.9789 43.9659 37.5524 44.5413Q36.2644 46.287 34.6808 46.287Q33.1034 46.287 31.8132 44.5468L31.809 44.5411Q31.3848 43.9659 31.2495 43.9659Q31.1166 43.9659 30.69 44.5436Q29.402 46.2894 27.8183 46.2894Q26.241 46.2894 24.9507 44.5492L24.9466 44.5436Q24.5224 43.9684 24.3871 43.9684Q24.2542 43.9684 23.8276 44.546Q22.5396 46.2919 20.9559 46.2919Q20.0723 46.2919 19.5038 45.6334Q18.6657 44.6694 19.1314 41.1631L19.136 41.1278Q19.3727 39.3221 19.329 38.8303L19.8271 38.786L19.9238 39.2766Q17.6147 39.7318 14.7321 45.4918Q14.3357 46.292 13.4445 46.292Q13.3755 46.292 13.3255 46.2856L13.3881 45.7896L13.3596 46.2888Q12.41 46.2346 12.0896 45.3367Q9.89151 39.2073 11.9972 35.9509Q13.2337 34.0425 15.761 33.8776Q17.2066 33.7822 17.332 33.4738Q17.3408 33.4523 17.1101 33.1884Q15.8597 31.7529 13.5691 32.3811Q9.3623 33.5288 7.74435 39.484Q6.94177 42.4498 8.27856 43.8344Q9.27457 44.8722 8.2485 45.8815Q7.81924 46.3009 7.22318 46.2928Q6.62616 46.2848 6.2084 45.8523Q3.72507 43.2825 4.96362 38.7218Q5.76779 35.7582 7.87521 33.1564Q10.1888 30.3002 12.8142 29.5846Q16.8442 28.4854 19.2769 31.2783Q20.6892 32.8953 19.9977 34.579Q19.1826 36.5593 15.9489 36.772Q14.8627 36.8435 14.4144 37.5343Q13.5309 38.8997 14.2349 42.2896L13.7454 42.3912L13.3199 42.1287Q16.9411 36.2637 20.2134 36.3666Q21.0808 36.3965 21.6302 37.0548Q22.097 37.61 22.1851 38.5522L21.6873 38.5988L21.4096 38.183Q24.8106 35.912 30.8791 35.2938L30.9298 35.7913L30.4441 35.91Q27.0173 21.9006 30.8626 10.0167Q32.8613 3.8396 35.7632 0.388184L35.7764 0.372559L35.7908 0.358032Q35.8152 0.333496 35.8455 0.309204Q35.805 0.341553 35.7705 0.388062L35.7857 0.367554L35.8028 0.348755Q35.8603 0.286011 35.9341 0.2229L36.2588 0.603149L35.9037 0.251221Q35.9691 0.185181 36.0385 0.13855Q36.084 0.10791 36.1604 0.0649414Q36.173 0.0578613 36.179 0.0544434L36.4258 0.489258L36.159 0.0664062Q36.2266 0.0238037 36.289 -0.00415039Q36.3866 -0.0455322 36.4987 -0.0738525L36.5239 -0.0802002L36.5496 -0.0838623Q36.5156 -0.0789795 36.4945 -0.0718994Q36.5158 -0.0791016 36.5318 -0.0837402L36.5463 -0.0878906L36.5609 -0.0911865Q36.7102 -0.124634 36.8679 -0.124634L36.8764 -0.124634L37.0237 -0.119629L37.0067 0.380127L37.0067 -0.119873Q37.6775 -0.119873 38.1059 0.39209Q40.9885 3.8042 42.9943 9.97327Q46.8388 21.7976 43.4731 35.7401L42.9871 35.6228L43.0166 35.1237Q51.872 35.6475 56.2773 38.7578Q58.6518 40.4343 59.1158 42.1572Q59.125 42.1942 59.1299 42.238Q59.1274 42.2156 59.1206 42.1881L59.1261 42.2103L59.1444 42.3307Q59.1587 42.432 59.1587 42.5004Q59.1587 42.4744 59.1561 42.4532Q59.1611 42.4933 59.1611 42.5289Q59.1611 42.5771 59.1532 42.64Q59.1527 42.644 59.1526 42.6449L58.6564 42.5835L59.1551 42.6188L59.1549 42.6221Q59.1477 42.7234 59.1337 42.7894L58.6446 42.6855L59.1379 42.767Q59.13 42.8151 59.1111 42.8912L59.1079 42.9042L59.1041 42.9167Q59.1028 42.9211 59.0989 42.9347Q59.0791 43.0051 59.0598 43.052L58.5976 42.8612L59.0724 43.0179Q59.0434 43.1057 59.0022 43.182ZM37.8081 38.0466L40.2398 38.0466L40.2398 38.5466L39.7613 38.4016Q45.7 18.8025 37.3758 4.48096L37.8081 4.22961L38.3081 4.22961L38.3081 38.5466L37.8081 38.5466L37.8081 38.0466ZM37.3081 39.0466L37.3081 2.37439L38.2404 3.97839Q46.783 18.6761 40.7183 38.6915L40.6107 39.0466L37.8081 39.0466L37.3081 39.0466ZM36.4267 4.47876L36.4267 39.0466L33.2628 39.0466L33.1553 38.6917Q27.1723 18.9485 35.4915 4.23267L36.4267 4.47876ZM35.4267 4.47876L35.9267 4.47876L36.362 4.72485Q28.2535 19.0681 34.1123 38.4016L33.6338 38.5466L33.6338 38.0466L35.9267 38.0466L35.9267 38.5466L35.4267 38.5466L35.4267 4.47876ZM55.0475 43.5588L55.0387 43.5284Q55.0672 43.4469 55.1215 43.2717L55.1263 43.2562L55.6038 43.4045L55.6689 43.9003L54.894 44.0021L55.1255 43.2563Q55.4561 42.1917 56.0334 41.6801L56.365 42.0542L55.9715 42.3627Q52.9801 38.5457 42.4758 37.9993L42.5018 37.5L42.9839 37.6326Q42.6577 38.8185 42.3036 39.9385Q41.9835 40.95 40.9308 40.95L32.9399 40.95Q31.8872 40.95 31.5672 39.9386Q31.2552 38.9418 30.9344 37.7909L31.416 37.6566L31.4633 38.1544Q25.3307 38.7368 21.8605 41.4468L21.5528 41.0527L22.0485 41.1182Q22.0413 41.1727 22.0275 41.282Q22.0049 41.4603 21.9915 41.556Q21.7651 43.2672 21.7911 43.7927L21.2917 43.8175L21.0363 43.3877Q21.1573 43.3158 21.5166 42.8263L21.5214 42.8198Q22.8116 41.0796 24.3914 41.0796Q25.9687 41.0796 27.2589 42.8198L27.2623 42.8243Q27.6873 43.4006 27.8226 43.4006Q27.9557 43.4006 28.3828 42.8245L28.3861 42.8198Q29.6764 41.0796 31.2561 41.0796Q32.8335 41.0796 34.1237 42.8198L34.1271 42.8243Q34.5543 43.4006 34.6873 43.4006Q34.8204 43.4006 35.2475 42.8245Q36.5349 41.0796 38.1185 41.0796Q39.6959 41.0796 40.9861 42.8198L40.9895 42.8243Q41.4168 43.403 41.5521 43.403Q41.6852 43.403 42.1123 42.8269L42.1157 42.8223Q43.406 41.082 44.9857 41.082Q46.563 41.082 47.8532 42.8223L47.8566 42.8268Q48.2816 43.403 48.4169 43.403Q48.5522 43.403 48.9789 42.8252Q50.2668 41.0796 51.8504 41.0796Q53.4301 41.0796 54.7204 42.8198L54.7238 42.8243Q55.1509 43.4006 55.284 43.4006L55.2255 43.4265L55.4274 43.8839L55.0475 43.5588ZM55.8073 44.2091L55.7334 44.2954L55.6294 44.3413Q55.4953 44.4006 55.284 44.4006Q54.6474 44.4005 53.9204 43.4199L53.9171 43.4154Q52.9267 42.0796 51.8504 42.0796Q50.7717 42.0796 49.7833 43.4192Q49.0569 44.403 48.4169 44.403Q47.7766 44.403 47.0533 43.4224L47.0499 43.4178Q46.0596 42.082 44.9857 42.082Q43.9094 42.082 42.919 43.4178L42.9156 43.4224Q42.1887 44.403 41.5521 44.403Q40.9121 44.403 40.1862 43.4199L40.1828 43.4154Q39.1924 42.0796 38.1185 42.0796Q37.0398 42.0796 36.0509 43.4199Q35.3239 44.4006 34.6873 44.4006Q34.0508 44.4005 33.3238 43.4199L33.3204 43.4154Q32.33 42.0796 31.2561 42.0796Q30.1799 42.0796 29.1895 43.4154L29.1861 43.4199Q28.4592 44.4006 27.8226 44.4006Q27.1823 44.4006 26.459 43.4199L26.4556 43.4154Q25.4652 42.0796 24.3914 42.0796Q23.3151 42.0796 22.3247 43.4154L22.3227 43.4181Q21.8431 44.0715 21.5472 44.2473L20.8334 44.6715L20.7924 43.8423Q20.7618 43.2261 21.0011 41.418Q21.0136 41.3285 21.0354 41.1565Q21.0496 41.0442 21.0571 40.9872L21.0839 40.7845L21.245 40.6587Q24.9454 37.769 31.3687 37.1588L31.7853 37.1193L31.8976 37.5223Q32.2143 38.6581 32.5207 39.637Q32.6197 39.95 32.9399 39.95L40.9308 39.95Q41.2511 39.95 41.3501 39.6371Q41.6985 38.535 42.0197 37.3674L42.1263 36.9797L42.5278 37.0006Q53.4865 37.5707 56.7585 41.7458L57.0489 42.1163L56.6966 42.4285Q56.3284 42.7548 56.0806 43.553L55.6031 43.4047L55.538 42.9089L56.3129 42.8071L56.0813 43.5529L56.0766 43.5681Q55.9177 44.0801 55.8073 44.2091Z" fill="#222532" fill-opacity="1.000000" fill-rule="nonzero"/>
	<path d="M6.28 30.13C6.16 29.99 5.07 28.73 3.68 28.73C3.03 28.73 2.1 28.99 1.38 30.27L0.57 31.69L7.59 31.69L6.28 30.13Z" fill="#FFFFFF" fill-opacity="1.000000" fill-rule="nonzero"/>
	<path d="M3.68 28.73C3.03 28.73 2.1 28.99 1.38 30.27L0.57 31.69L7.59 31.69L6.28 30.13C6.16 29.99 5.07 28.73 3.68 28.73Z" stroke="#222532" stroke-opacity="1.000000" stroke-width="1.000000"/>
	<mask id="mask_0_2959" fill="white">
		<path d="M5.43042 33.6766L4.46384 33.5746C4.46384 33.5746 2.54248 33.3705 1.28903 34.8822C0.393036 35.9619 0.127289 37.571 0.501221 39.6643L0.816345 41.4442L2.08862 40.1721C2.20621 40.0535 4.95303 37.2792 5.30817 34.6495L5.43042 33.6766ZM2.73532 36.0997C2.56836 36.2991 2.44373 36.553 2.35669 36.8521L2.35672 36.8521C2.55661 36.5507 2.74945 36.235 2.91406 35.917C2.85291 35.9716 2.79178 36.0309 2.73532 36.0997Z" clip-rule="evenodd" fill="" fill-opacity="1.000000" fill-rule="evenodd"/>
	</mask>
	<path d="M5.43042 33.6766L4.46384 33.5746C4.46384 33.5746 2.54248 33.3705 1.28903 34.8822C0.393036 35.9619 0.127289 37.571 0.501221 39.6643L0.816345 41.4442L2.08862 40.1721C2.20621 40.0535 4.95303 37.2792 5.30817 34.6495L5.43042 33.6766ZM2.73532 36.0997C2.56836 36.2991 2.44373 36.553 2.35669 36.8521L2.35672 36.8521C2.55661 36.5507 2.74945 36.235 2.91406 35.917C2.85291 35.9716 2.79178 36.0309 2.73532 36.0997Z" clip-rule="evenodd" fill="#FFFFFF" fill-opacity="1.000000" fill-rule="evenodd" mask="url(#mask_0_2959)"/>
	<path d="M5.37793 34.1738L4.41135 34.0718Q4.32288 34.0624 4.15527 34.0662Q3.80368 34.0741 3.4523 34.1501Q2.34711 34.3894 1.67395 35.2013Q1.08817 35.9072 0.912231 36.9745Q0.728149 38.0913 0.993408 39.5763L1.30869 41.3571L0.816345 41.4442L0.46283 41.0906L1.73511 39.8185Q1.94498 39.6067 2.21591 39.2987Q2.74786 38.694 3.20337 38.0605Q3.82745 37.1926 4.22275 36.3853Q4.70117 35.4081 4.81265 34.5826L4.93433 33.6143L5.43042 33.6766L5.37793 34.1738ZM5.99008 33.2329L5.80368 34.7166Q5.6705 35.7024 5.12088 36.825Q4.68854 37.7081 4.01526 38.6444Q3.53113 39.3176 2.96677 39.9592Q2.67621 40.2896 2.44217 40.5258L0.491302 42.4763L0.00900269 39.7522Q-0.286469 38.0981 -0.0744324 36.8119Q0.145569 35.4772 0.904144 34.563Q1.39661 33.9691 2.07538 33.6007Q2.6134 33.3086 3.24066 33.1727Q3.68558 33.0764 4.13281 33.0664Q4.36462 33.0612 4.51633 33.0773L5.48291 33.1793L5.99008 33.2329ZM3.11865 36.4208Q2.94135 36.6324 2.83679 36.9917L2.35669 36.8521L2.80215 36.6249L2.80215 36.6249L2.35672 36.8521L1.94 36.5757Q2.25912 36.0945 2.47003 35.6871L2.91406 35.917L3.24701 36.2899Q3.16827 36.3602 3.12195 36.4167L3.11865 36.4208ZM2.34872 35.7826Q2.44437 35.666 2.58112 35.5439L3.35809 36.1469Q3.12234 36.6022 2.77341 37.1284L2.30014 37.8419L1.82126 36.9026L1.87662 36.7123Q2.03986 36.1514 2.35202 35.7787L2.34872 35.7826Z" fill="#222532" fill-opacity="1.000000" fill-rule="nonzero"/>
	<mask id="mask_0_2962" fill="white">
		<path d="M11.7065 28.2914C11.7065 29.2833 10.9046 30.0902 9.92163 30.0902C8.9386 30.0902 8.13904 29.2833 8.13904 28.2914C8.13904 27.2993 8.9386 26.4924 9.92163 26.4924C10.907 26.4924 11.7065 27.2993 11.7065 28.2914ZM10.0204 28.2913C10.0204 28.2367 9.97571 28.1917 9.92163 28.1917C9.86752 28.1917 9.8252 28.2367 9.8252 28.2913C9.8252 28.4005 10.0204 28.4005 10.0204 28.2913Z" clip-rule="evenodd" fill="" fill-opacity="1.000000" fill-rule="evenodd"/>
	</mask>
	<path d="M11.7065 28.2914C11.7065 29.2833 10.9046 30.0902 9.92163 30.0902C8.9386 30.0902 8.13904 29.2833 8.13904 28.2914C8.13904 27.2993 8.9386 26.4924 9.92163 26.4924C10.907 26.4924 11.7065 27.2993 11.7065 28.2914ZM10.0204 28.2913C10.0204 28.2367 9.97571 28.1917 9.92163 28.1917C9.86752 28.1917 9.8252 28.2367 9.8252 28.2913C9.8252 28.4005 10.0204 28.4005 10.0204 28.2913Z" clip-rule="evenodd" fill="#FFFFFF" fill-opacity="1.000000" fill-rule="evenodd" mask="url(#mask_0_2962)"/>
	<path d="M12.2065 28.2914Q12.2065 28.7576 12.0267 29.1848Q11.8533 29.5969 11.5376 29.915Q11.2215 30.2334 10.8116 30.4084Q10.386 30.5902 9.92163 30.5902Q9.45715 30.5902 9.03183 30.4084Q8.62219 30.2333 8.30655 29.9147Q7.99133 29.5967 7.8183 29.1844Q7.63904 28.7574 7.63904 28.2914Q7.63904 27.8252 7.8183 27.3982Q7.99133 26.986 8.30655 26.668Q8.62219 26.3494 9.03183 26.1743Q9.45715 25.9924 9.92163 25.9924Q10.3868 25.9924 10.8125 26.1742Q11.2227 26.3492 11.5386 26.6677Q11.8541 26.9858 12.0272 27.3982Q12.2065 27.8252 12.2065 28.2914ZM11.2065 28.2914Q11.2065 28.0266 11.1052 27.7854Q11.0073 27.5521 10.8286 27.3719Q10.6503 27.1921 10.4199 27.0939Q10.1823 26.9924 9.92163 26.9924Q9.66193 26.9924 9.42493 27.0938Q9.19498 27.192 9.01685 27.3718Q8.83829 27.552 8.74036 27.7853Q8.63904 28.0266 8.63904 28.2914Q8.63904 28.556 8.74036 28.7974Q8.83826 29.0306 9.01685 29.2108Q9.19498 29.3906 9.42493 29.4889Q9.66193 29.5902 9.92163 29.5902Q10.1814 29.5902 10.4189 29.4889Q10.6493 29.3904 10.8279 29.2106Q11.0069 29.0302 11.105 28.797Q11.2065 28.5558 11.2065 28.2914ZM9.52039 28.2913Q9.52039 28.4562 9.63614 28.573Q9.75375 28.6917 9.92163 28.6917Q10.0946 28.6917 10.2141 28.567Q10.3252 28.451 10.3252 28.2913Q10.3252 28.1885 10.2769 28.0959Q10.2318 28.0095 10.1546 27.9519Q10.049 27.8732 9.92279 27.8732Q9.79654 27.8732 9.69098 27.9519Q9.61374 28.0095 9.56866 28.0959Q9.52039 28.1885 9.52039 28.2913ZM10.5204 28.2913Q10.5204 28.4336 10.4554 28.5583Q10.3947 28.6746 10.2888 28.7535Q10.1284 28.8732 9.92279 28.8732Q9.71725 28.8732 9.55679 28.7535Q9.45084 28.6746 9.39026 28.5583Q9.3252 28.4336 9.3252 28.2913Q9.3252 28.0492 9.49216 27.875Q9.66794 27.6917 9.92163 27.6917Q10.1706 27.6917 10.3465 27.869Q10.5204 28.0446 10.5204 28.2913Z" fill="#222532" fill-opacity="1.000000" fill-rule="nonzero"/>
</svg>
