<svg width="24.000000" height="24.000000" viewBox="0 0 24 24" fill="none" xmlns="http://www.w3.org/2000/svg" xmlns:xlink="http://www.w3.org/1999/xlink">
	<desc>
			Created with Pixso.
	</desc>
	<defs/>
	<path id="Shape" d="M23.3304 20.0983C24.2232 20.9911 24.2232 22.4376 23.3304 23.3304C22.4375 24.2231 20.991 24.2233 20.0982 23.3304L15.3817 18.6139C15.0469 18.2791 14.442 18.1942 14.0201 18.4197C14.0201 18.4197 14.0782 18.4062 13.7098 18.5714C12.4911 19.1228 11.1384 19.4286 9.71429 19.4286C4.34824 19.4286 0 15.0803 0 9.71436C0 4.34827 4.34824 0 9.71429 0C15.0804 0 19.4286 4.34827 19.4286 9.71436C19.4286 11.1428 19.1206 12.5 18.567 13.7209C18.4018 14.0848 18.4174 14.0223 18.4174 14.0223C18.192 14.4375 18.2791 15.0469 18.6139 15.3817L23.3304 20.0983ZM15.1429 9.71436C15.1429 12.712 12.7121 15.1429 9.71432 15.1429C6.71655 15.1429 4.28577 12.712 4.28577 9.71436C4.28577 6.71655 6.71655 4.28577 9.71432 4.28577C12.7121 4.28577 15.1429 6.71655 15.1429 9.71436Z" clip-rule="evenodd" fill="#FFFFFF" fill-opacity="1.000000" fill-rule="evenodd"/>
</svg>
